<svg xmlns:xlink="http://www.w3.org/1999/xlink" version="1.1" class="highcharts-root" style="font-family:&quot;DIN Next&quot;, &quot;Helvetica Neue&quot;, Helvetica, Arial, sans-serif;font-size:1em;" xmlns="http://www.w3.org/2000/svg" width="600" height="400" viewBox="0 0 600 400" aria-label="Interactive chart" aria-hidden="false"><desc aria-hidden="true">Created with Highcharts 9.0.1</desc><defs aria-hidden="true"><clipPath id="highcharts-irbm2g1-38-"><rect x="0" y="0" width="493" height="290" fill="none"></rect></clipPath></defs><rect fill="#ffffff" class="highcharts-background" x="0" y="0" width="600" height="400" rx="0" ry="0" aria-hidden="true"></rect><rect fill="none" class="highcharts-plot-background" x="97" y="59" width="493" height="290" aria-hidden="true"></rect><g class="highcharts-grid highcharts-xaxis-grid" data-z-index="1" aria-hidden="true"><path fill="none" data-z-index="1" class="highcharts-grid-line" d="M 112.5 59 L 112.5 349" opacity="1"></path><path fill="none" data-z-index="1" class="highcharts-grid-line" d="M 129.5 59 L 129.5 349" opacity="1"></path><path fill="none" data-z-index="1" class="highcharts-grid-line" d="M 145.5 59 L 145.5 349" opacity="1"></path><path fill="none" data-z-index="1" class="highcharts-grid-line" d="M 162.5 59 L 162.5 349" opacity="1"></path><path fill="none" data-z-index="1" class="highcharts-grid-line" d="M 178.5 59 L 178.5 349" opacity="1"></path><path fill="none" data-z-index="1" class="highcharts-grid-line" d="M 195.5 59 L 195.5 349" opacity="1"></path><path fill="none" data-z-index="1" class="highcharts-grid-line" d="M 211.5 59 L 211.5 349" opacity="1"></path><path fill="none" data-z-index="1" class="highcharts-grid-line" d="M 227.5 59 L 227.5 349" opacity="1"></path><path fill="none" data-z-index="1" class="highcharts-grid-line" d="M 244.5 59 L 244.5 349" opacity="1"></path><path fill="none" data-z-index="1" class="highcharts-grid-line" d="M 260.5 59 L 260.5 349" opacity="1"></path><path fill="none" data-z-index="1" class="highcharts-grid-line" d="M 277.5 59 L 277.5 349" opacity="1"></path><path fill="none" data-z-index="1" class="highcharts-grid-line" d="M 293.5 59 L 293.5 349" opacity="1"></path><path fill="none" data-z-index="1" class="highcharts-grid-line" d="M 310.5 59 L 310.5 349" opacity="1"></path><path fill="none" data-z-index="1" class="highcharts-grid-line" d="M 326.5 59 L 326.5 349" opacity="1"></path><path fill="none" data-z-index="1" class="highcharts-grid-line" d="M 343.5 59 L 343.5 349" opacity="1"></path><path fill="none" data-z-index="1" class="highcharts-grid-line" d="M 359.5 59 L 359.5 349" opacity="1"></path><path fill="none" data-z-index="1" class="highcharts-grid-line" d="M 375.5 59 L 375.5 349" opacity="1"></path><path fill="none" data-z-index="1" class="highcharts-grid-line" d="M 392.5 59 L 392.5 349" opacity="1"></path><path fill="none" data-z-index="1" class="highcharts-grid-line" d="M 408.5 59 L 408.5 349" opacity="1"></path><path fill="none" data-z-index="1" class="highcharts-grid-line" d="M 425.5 59 L 425.5 349" opacity="1"></path><path fill="none" data-z-index="1" class="highcharts-grid-line" d="M 441.5 59 L 441.5 349" opacity="1"></path><path fill="none" data-z-index="1" class="highcharts-grid-line" d="M 458.5 59 L 458.5 349" opacity="1"></path><path fill="none" data-z-index="1" class="highcharts-grid-line" d="M 474.5 59 L 474.5 349" opacity="1"></path><path fill="none" data-z-index="1" class="highcharts-grid-line" d="M 490.5 59 L 490.5 349" opacity="1"></path><path fill="none" data-z-index="1" class="highcharts-grid-line" d="M 507.5 59 L 507.5 349" opacity="1"></path><path fill="none" data-z-index="1" class="highcharts-grid-line" d="M 523.5 59 L 523.5 349" opacity="1"></path><path fill="none" data-z-index="1" class="highcharts-grid-line" d="M 540.5 59 L 540.5 349" opacity="1"></path><path fill="none" data-z-index="1" class="highcharts-grid-line" d="M 556.5 59 L 556.5 349" opacity="1"></path><path fill="none" data-z-index="1" class="highcharts-grid-line" d="M 573.5 59 L 573.5 349" opacity="1"></path><path fill="none" data-z-index="1" class="highcharts-grid-line" d="M 589.5 59 L 589.5 349" opacity="1"></path><path fill="none" data-z-index="1" class="highcharts-grid-line" d="M 96.5 59 L 96.5 349" opacity="1"></path></g><g class="highcharts-grid highcharts-yaxis-grid" data-z-index="1" aria-hidden="true"><path fill="none" stroke="#b0bec5" stroke-width="1" data-z-index="1" class="highcharts-grid-line" d="M 97 349.5 L 590 349.5" opacity="1"></path><path fill="none" stroke="#b0bec5" stroke-width="1" data-z-index="1" class="highcharts-grid-line" d="M 97 301.5 L 590 301.5" opacity="1"></path><path fill="none" stroke="#b0bec5" stroke-width="1" data-z-index="1" class="highcharts-grid-line" d="M 97 252.5 L 590 252.5" opacity="1"></path><path fill="none" stroke="#b0bec5" stroke-width="1" data-z-index="1" class="highcharts-grid-line" d="M 97 204.5 L 590 204.5" opacity="1"></path><path fill="none" stroke="#b0bec5" stroke-width="1" data-z-index="1" class="highcharts-grid-line" d="M 97 156.5 L 590 156.5" opacity="1"></path><path fill="none" stroke="#b0bec5" stroke-width="1" data-z-index="1" class="highcharts-grid-line" d="M 97 107.5 L 590 107.5" opacity="1"></path><path fill="none" stroke="#b0bec5" stroke-width="1" data-z-index="1" class="highcharts-grid-line" d="M 97 58.5 L 590 58.5" opacity="1"></path></g><rect fill="none" class="highcharts-plot-border" data-z-index="1" x="97" y="59" width="493" height="290" aria-hidden="true"></rect><g class="highcharts-axis highcharts-xaxis" data-z-index="2" aria-hidden="true"><path fill="none" class="highcharts-axis-line" stroke="#ccd6eb" stroke-width="1" data-z-index="7" d="M 97 349.5 L 590 349.5"></path></g><g class="highcharts-axis highcharts-yaxis" data-z-index="2" aria-hidden="true"><text x="24.233333587646484" data-z-index="7" text-anchor="middle" transform="translate(0,0) rotate(270 24.233333587646484 204)" class="highcharts-axis-title" style="color:#666666;font-size:0.7em;fill:#666666;" y="204">Antal</text><path fill="none" class="highcharts-axis-line" data-z-index="7" d="M 97 59 L 97 349"></path></g><g class="highcharts-series-group" data-z-index="3" aria-hidden="false"><g class="highcharts-series highcharts-series-0 highcharts-line-series highcharts-color-0" data-z-index="0.1" opacity="1" transform="translate(97,59) scale(1 1)" clip-path="url(#highcharts-irbm2g1-38-)" aria-hidden="true"><path fill="none" d="M 8.2166666666667 269.88308666666666 L 24.65 267.2380933333333 L 41.083333333333 268.5030733333333 L 57.516666666667 255.39198 L 73.95 243.82156 L 90.383333333333 235.26772 L 106.81666666667 228.68491333333333 L 123.25 223.63756 L 139.68333333333 221.54840000000002 L 156.11666666667 217.95800666666668 L 172.55 214.9306 L 188.98333333333 213.70119333333332 L 205.41666666667 209.60793999999999 L 221.85 200.16147999999998 L 238.28333333333 189.46415333333334 L 254.71666666667 180.09135333333333 L 271.15 174.17593333333332 L 287.58333333333 170.07108 L 304.01666666667 161.68930666666665 L 320.45 155.08600666666666 L 336.88333333333 148.16873333333334 L 353.31666666667 139.56327333333334 L 369.75 129.61492 L 386.18333333333 117.77421999999999 L 402.61666666667 103.32932 L 419.05 90.85758000000001 L 435.48333333333 78.40266 L 451.91666666667 67.33297333333334 L 468.35 53.424379999999985 L 484.78333333333 41.073086666666654" class="highcharts-graph" data-z-index="1" stroke="#0097d8" stroke-width="2" stroke-linejoin="round" stroke-linecap="round"></path></g><g class="highcharts-markers highcharts-series-0 highcharts-line-series highcharts-color-0" data-z-index="0.1" opacity="1" transform="translate(97,59) scale(1 1)" clip-path="none" aria-hidden="false" aria-label=""><path fill="#0097d8" d="M 8 274 A 4 4 0 1 1 8.003999999333336 273.9999980000002 Z" opacity="0" class="highcharts-point highcharts-color-0" tabindex="-1" style="outline: 0px;" role="img" aria-label="1. 1993, 1,604,053."></path><path fill="#0097d8" d="M 24 271 A 4 4 0 1 1 24.003999999333335 270.9999980000002 Z" opacity="0" class="highcharts-point highcharts-color-0" tabindex="-1" style="outline: 0px;" role="img" aria-label="2. 1994, 1,617,734."></path><path fill="#0097d8" d="M 41 273 A 4 4 0 1 1 41.00399999933334 272.9999980000002 Z" opacity="0" class="highcharts-point highcharts-color-0" tabindex="-1" style="outline: 0px;" role="img" aria-label="3. 1995, 1,611,191."></path><path fill="#0097d8" d="M 57 259 A 4 4 0 1 1 57.00399999933334 258.9999980000002 Z" opacity="0" class="highcharts-point highcharts-color-0" tabindex="-1" style="outline: 0px;" role="img" aria-label="4. 1996, 1,679,007."></path><path fill="#0097d8" d="M 73 248 A 4 4 0 1 1 73.00399999933333 247.99999800000018 Z" opacity="0" class="highcharts-point highcharts-color-0" tabindex="-1" style="outline: 0px;" role="img" aria-label="5. 1997, 1,738,854."></path><path fill="#0097d8" d="M 90 239 A 4 4 0 1 1 90.00399999933333 238.99999800000018 Z" opacity="0" class="highcharts-point highcharts-color-0" tabindex="-1" style="outline: 0px;" role="img" aria-label="6. 1998, 1,783,098."></path><path fill="#0097d8" d="M 106 233 A 4 4 0 1 1 106.00399999933333 232.99999800000018 Z" opacity="0" class="highcharts-point highcharts-color-0" tabindex="-1" style="outline: 0px;" role="img" aria-label="7. 1999, 1,817,147."></path><path fill="#0097d8" d="M 123 228 A 4 4 0 1 1 123.00399999933333 227.99999800000018 Z" opacity="0" class="highcharts-point highcharts-color-0" tabindex="-1" style="outline: 0px;" role="img" aria-label="8. 2000, 1,843,254."></path><path fill="#0097d8" d="M 139 226 A 4 4 0 1 1 139.00399999933333 225.99999800000018 Z" opacity="0" class="highcharts-point highcharts-color-0" tabindex="-1" style="outline: 0px;" role="img" aria-label="9. 2001, 1,854,060."></path><path fill="#0097d8" d="M 156 222 A 4 4 0 1 1 156.00399999933333 221.99999800000018 Z" opacity="0" class="highcharts-point highcharts-color-0" tabindex="-1" style="outline: 0px;" role="img" aria-label="10. 2002, 1,872,631."></path><path fill="#0097d8" d="M 172 219 A 4 4 0 1 1 172.00399999933333 218.99999800000018 Z" opacity="0" class="highcharts-point highcharts-color-0" tabindex="-1" style="outline: 0px;" role="img" aria-label="11. 2003, 1,888,290."></path><path fill="#0097d8" d="M 188 218 A 4 4 0 1 1 188.00399999933333 217.99999800000018 Z" opacity="0" class="highcharts-point highcharts-color-0" tabindex="-1" style="outline: 0px;" role="img" aria-label="12. 2004, 1,894,649."></path><path fill="#0097d8" d="M 205 214 A 4 4 0 1 1 205.00399999933333 213.99999800000018 Z" opacity="0" class="highcharts-point highcharts-color-0" tabindex="-1" style="outline: 0px;" role="img" aria-label="13. 2005, 1,915,821."></path><path fill="#0097d8" d="M 221 204 A 4 4 0 1 1 221.00399999933333 203.99999800000018 Z" opacity="0" class="highcharts-point highcharts-color-0" tabindex="-1" style="outline: 0px;" role="img" aria-label="14. 2006, 1,964,682."></path><path fill="#0097d8" d="M 238 193 A 4 4 0 1 1 238.00399999933333 192.99999800000018 Z" opacity="0" class="highcharts-point highcharts-color-0" tabindex="-1" style="outline: 0px;" role="img" aria-label="15. 2007, 2,020,013."></path><path fill="#0097d8" d="M 254 184 A 4 4 0 1 1 254.00399999933333 183.99999800000018 Z" opacity="0" class="highcharts-point highcharts-color-0" tabindex="-1" style="outline: 0px;" role="img" aria-label="16. 2008, 2,068,493."></path><path fill="#0097d8" d="M 271 178 A 4 4 0 1 1 271.00399999933336 177.99999800000018 Z" opacity="0" class="highcharts-point highcharts-color-0" tabindex="-1" style="outline: 0px;" role="img" aria-label="17. 2009, 2,099,090."></path><path fill="#0097d8" d="M 287 174 A 4 4 0 1 1 287.00399999933336 173.99999800000018 Z" opacity="0" class="highcharts-point highcharts-color-0" tabindex="-1" style="outline: 0px;" role="img" aria-label="18. 2010, 2,120,322."></path><path fill="#0097d8" d="M 304 166 A 4 4 0 1 1 304.00399999933336 165.99999800000018 Z" opacity="0" class="highcharts-point highcharts-color-0" tabindex="-1" style="outline: 0px;" role="img" aria-label="19. 2011, 2,163,676."></path><path fill="#0097d8" d="M 320 159 A 4 4 0 1 1 320.00399999933336 158.99999800000018 Z" opacity="0" class="highcharts-point highcharts-color-0" tabindex="-1" style="outline: 0px;" role="img" aria-label="20. 2012, 2,197,831."></path><path fill="#0097d8" d="M 336 152 A 4 4 0 1 1 336.00399999933336 151.99999800000018 Z" opacity="0" class="highcharts-point highcharts-color-0" tabindex="-1" style="outline: 0px;" role="img" aria-label="21. 2013, 2,233,610."></path><path fill="#0097d8" d="M 353 144 A 4 4 0 1 1 353.00399999933336 143.99999800000018 Z" opacity="0" class="highcharts-point highcharts-color-0" tabindex="-1" style="outline: 0px;" role="img" aria-label="22. 2014, 2,278,121."></path><path fill="#0097d8" d="M 369 134 A 4 4 0 1 1 369.00399999933336 133.99999800000018 Z" opacity="0" class="highcharts-point highcharts-color-0" tabindex="-1" style="outline: 0px;" role="img" aria-label="23. 2015, 2,329,578."></path><path fill="#0097d8" d="M 386 122 A 4 4 0 1 1 386.00399999933336 121.99999800000016 Z" opacity="0" class="highcharts-point highcharts-color-0" tabindex="-1" style="outline: 0px;" role="img" aria-label="24. 2016, 2,390,823."></path><path fill="#0097d8" d="M 402 107 A 4 4 0 1 1 402.00399999933336 106.99999800000016 Z" opacity="0" class="highcharts-point highcharts-color-0" tabindex="-1" style="outline: 0px;" role="img" aria-label="25. 2017, 2,465,538."></path><path fill="#0097d8" d="M 419 95 A 4 4 0 1 1 419.00399999933336 94.99999800000016 Z" opacity="0" class="highcharts-point highcharts-color-0" tabindex="-1" style="outline: 0px;" role="img" aria-label="26. 2018, 2,530,047."></path><path fill="#0097d8" d="M 435 82 A 4 4 0 1 1 435.00399999933336 81.99999800000016 Z" opacity="0" class="highcharts-point highcharts-color-0" tabindex="-1" style="outline: 0px;" role="img" aria-label="27. 2019, 2,594,469."></path><path fill="#0097d8" d="M 451 71 A 4 4 0 1 1 451.00399999933336 70.99999800000016 Z" opacity="0" class="highcharts-point highcharts-color-0" tabindex="-1" style="outline: 0px;" role="img" aria-label="28. 2020, 2,651,726."></path><path fill="#0097d8" d="M 468 57 A 4 4 0 1 1 468.00399999933336 56.99999800000017 Z" opacity="0" class="highcharts-point highcharts-color-0" tabindex="-1" style="outline: 0px;" role="img" aria-label="29. 2021, 2,723,667."></path><path fill="#0097d8" d="M 484 45 A 4 4 0 1 1 484.00399999933336 44.99999800000017 Z" opacity="0" class="highcharts-point highcharts-color-0" tabindex="-1" style="outline: 0px;" role="img" aria-label="30. 2022, 2,787,553."></path></g></g><text x="10" text-anchor="start" class="highcharts-title" data-z-index="4" style="color:#002e2e;font-size:1em;font-weight:600;fill:#002e2e;" y="22" aria-hidden="true">Bestand af køretøjer pr. 1. januar</text><text x="10" text-anchor="start" class="highcharts-subtitle" data-z-index="4" style="color:#666666;font-size:0.8em;fill:#666666;" y="43" aria-hidden="true">Køretøjstype: Personbiler i alt:</text><text x="10" text-anchor="start" class="highcharts-caption" data-z-index="4" style="color:#666666;fill:#666666;" y="400" aria-hidden="true"></text><g class="highcharts-legend" data-z-index="7" aria-hidden="true"><rect fill="none" class="highcharts-legend-box" rx="0" ry="0" x="0" y="0" width="8" height="8" visibility="hidden"></rect><g data-z-index="1"><g></g></g></g><g class="highcharts-axis-labels highcharts-xaxis-labels" data-z-index="7" aria-hidden="true"><text x="108.39209314720627" style="color:#666666;cursor:default;font-size:0.7em;fill:#666666;" text-anchor="end" transform="translate(0,0) rotate(-60 108.39209314720627 363)" y="363" opacity="1">1993</text><text x="124.82542648054627" style="color:#666666;cursor:default;font-size:0.7em;fill:#666666;" text-anchor="end" transform="translate(0,0) rotate(-60 124.82542648054627 363)" y="363" opacity="1">1994</text><text x="141.25875981387628" style="color:#666666;cursor:default;font-size:0.7em;fill:#666666;" text-anchor="end" transform="translate(0,0) rotate(-60 141.25875981387628 363)" y="363" opacity="1">1995</text><text x="157.69209314720626" style="color:#666666;cursor:default;font-size:0.7em;fill:#666666;" text-anchor="end" transform="translate(0,0) rotate(-60 157.69209314720626 363)" y="363" opacity="1">1996</text><text x="174.12542648054628" style="color:#666666;cursor:default;font-size:0.7em;fill:#666666;" text-anchor="end" transform="translate(0,0) rotate(-60 174.12542648054628 363)" y="363" opacity="1">1997</text><text x="190.55875981387626" style="color:#666666;cursor:default;font-size:0.7em;fill:#666666;" text-anchor="end" transform="translate(0,0) rotate(-60 190.55875981387626 363)" y="363" opacity="1">1998</text><text x="206.99209314720628" style="color:#666666;cursor:default;font-size:0.7em;fill:#666666;" text-anchor="end" transform="translate(0,0) rotate(-60 206.99209314720628 363)" y="363" opacity="1">1999</text><text x="223.42542648054626" style="color:#666666;cursor:default;font-size:0.7em;fill:#666666;" text-anchor="end" transform="translate(0,0) rotate(-60 223.42542648054626 363)" y="363" opacity="1">2000</text><text x="239.85875981387628" style="color:#666666;cursor:default;font-size:0.7em;fill:#666666;" text-anchor="end" transform="translate(0,0) rotate(-60 239.85875981387628 363)" y="363" opacity="1">2001</text><text x="256.29209314720634" style="color:#666666;cursor:default;font-size:0.7em;fill:#666666;" text-anchor="end" transform="translate(0,0) rotate(-60 256.29209314720634 363)" y="363" opacity="1">2002</text><text x="272.72542648054633" style="color:#666666;cursor:default;font-size:0.7em;fill:#666666;" text-anchor="end" transform="translate(0,0) rotate(-60 272.72542648054633 363)" y="363" opacity="1">2003</text><text x="289.1587598138763" style="color:#666666;cursor:default;font-size:0.7em;fill:#666666;" text-anchor="end" transform="translate(0,0) rotate(-60 289.1587598138763 363)" y="363" opacity="1">2004</text><text x="305.5920931472063" style="color:#666666;cursor:default;font-size:0.7em;fill:#666666;" text-anchor="end" transform="translate(0,0) rotate(-60 305.5920931472063 363)" y="363" opacity="1">2005</text><text x="322.02542648054634" style="color:#666666;cursor:default;font-size:0.7em;fill:#666666;" text-anchor="end" transform="translate(0,0) rotate(-60 322.02542648054634 363)" y="363" opacity="1">2006</text><text x="338.4587598138763" style="color:#666666;cursor:default;font-size:0.7em;fill:#666666;" text-anchor="end" transform="translate(0,0) rotate(-60 338.4587598138763 363)" y="363" opacity="1">2007</text><text x="354.8920931472063" style="color:#666666;cursor:default;font-size:0.7em;fill:#666666;" text-anchor="end" transform="translate(0,0) rotate(-60 354.8920931472063 363)" y="363" opacity="1">2008</text><text x="371.32542648054635" style="color:#666666;cursor:default;font-size:0.7em;fill:#666666;" text-anchor="end" transform="translate(0,0) rotate(-60 371.32542648054635 363)" y="363" opacity="1">2009</text><text x="387.75875981387634" style="color:#666666;cursor:default;font-size:0.7em;fill:#666666;" text-anchor="end" transform="translate(0,0) rotate(-60 387.75875981387634 363)" y="363" opacity="1">2010</text><text x="404.1920931472063" style="color:#666666;cursor:default;font-size:0.7em;fill:#666666;" text-anchor="end" transform="translate(0,0) rotate(-60 404.1920931472063 363)" y="363" opacity="1">2011</text><text x="420.6254264805463" style="color:#666666;cursor:default;font-size:0.7em;fill:#666666;" text-anchor="end" transform="translate(0,0) rotate(-60 420.6254264805463 363)" y="363" opacity="1">2012</text><text x="437.05875981387635" style="color:#666666;cursor:default;font-size:0.7em;fill:#666666;" text-anchor="end" transform="translate(0,0) rotate(-60 437.05875981387635 363)" y="363" opacity="1">2013</text><text x="453.49209314720633" style="color:#666666;cursor:default;font-size:0.7em;fill:#666666;" text-anchor="end" transform="translate(0,0) rotate(-60 453.49209314720633 363)" y="363" opacity="1">2014</text><text x="469.9254264805463" style="color:#666666;cursor:default;font-size:0.7em;fill:#666666;" text-anchor="end" transform="translate(0,0) rotate(-60 469.9254264805463 363)" y="363" opacity="1">2015</text><text x="486.3587598138763" style="color:#666666;cursor:default;font-size:0.7em;fill:#666666;" text-anchor="end" transform="translate(0,0) rotate(-60 486.3587598138763 363)" y="363" opacity="1">2016</text><text x="502.79209314720634" style="color:#666666;cursor:default;font-size:0.7em;fill:#666666;" text-anchor="end" transform="translate(0,0) rotate(-60 502.79209314720634 363)" y="363" opacity="1">2017</text><text x="519.2254264805462" style="color:#666666;cursor:default;font-size:0.7em;fill:#666666;" text-anchor="end" transform="translate(0,0) rotate(-60 519.2254264805462 363)" y="363" opacity="1">2018</text><text x="535.6587598138763" style="color:#666666;cursor:default;font-size:0.7em;fill:#666666;" text-anchor="end" transform="translate(0,0) rotate(-60 535.6587598138763 363)" y="363" opacity="1">2019</text><text x="552.0920931472062" style="color:#666666;cursor:default;font-size:0.7em;fill:#666666;" text-anchor="end" transform="translate(0,0) rotate(-60 552.0920931472062 363)" y="363" opacity="1">2020</text><text x="568.5254264805462" style="color:#666666;cursor:default;font-size:0.7em;fill:#666666;" text-anchor="end" transform="translate(0,0) rotate(-60 568.5254264805462 363)" y="363" opacity="1">2021</text><text x="584.9587598138762" style="color:#666666;cursor:default;font-size:0.7em;fill:#666666;" text-anchor="end" transform="translate(0,0) rotate(-60 584.9587598138762 363)" y="363" opacity="1">2022</text></g><g class="highcharts-axis-labels highcharts-yaxis-labels" data-z-index="7" aria-hidden="true"><text x="82" style="color:#666666;cursor:default;font-size:0.7em;fill:#666666;" text-anchor="end" transform="translate(0,0)" y="353" opacity="1">1.500.000</text><text x="82" style="color:#666666;cursor:default;font-size:0.7em;fill:#666666;" text-anchor="end" transform="translate(0,0)" y="305" opacity="1">1.750.000</text><text x="82" style="color:#666666;cursor:default;font-size:0.7em;fill:#666666;" text-anchor="end" transform="translate(0,0)" y="256" opacity="1">2.000.000</text><text x="82" style="color:#666666;cursor:default;font-size:0.7em;fill:#666666;" text-anchor="end" transform="translate(0,0)" y="208" opacity="1">2.250.000</text><text x="82" style="color:#666666;cursor:default;font-size:0.7em;fill:#666666;" text-anchor="end" transform="translate(0,0)" y="160" opacity="1">2.500.000</text><text x="82" style="color:#666666;cursor:default;font-size:0.7em;fill:#666666;" text-anchor="end" transform="translate(0,0)" y="111" opacity="1">2.750.000</text><text x="82" style="color:#666666;cursor:default;font-size:0.7em;fill:#666666;" text-anchor="end" transform="translate(0,0)" y="63" opacity="1">3.000.000</text></g><text x="590" class="highcharts-credits" text-anchor="end" data-z-index="8" style="cursor:pointer;color:#999999;font-size:0.85em;fill:#999999;" y="395" aria-hidden="false"></text></svg>