<?xml version="1.0" encoding="UTF-8" standalone="no"?>
<svg
   width="1080"
   height="1080"
   viewBox="0 0 285.74999 285.75001"
   version="1.1"
   id="svg8"
   sodipodi:docname="bilfri-by-logo-no-text-white-background.svg"
   inkscape:version="1.1.2 (0a00cf5339, 2022-02-04)"
   inkscape:export-filename="/home/lukas/Webpages/bilfri.by/static/img/favicon.png"
   inkscape:export-xdpi="96"
   inkscape:export-ydpi="96"
   xmlns:inkscape="http://www.inkscape.org/namespaces/inkscape"
   xmlns:sodipodi="http://sodipodi.sourceforge.net/DTD/sodipodi-0.dtd"
   xmlns="http://www.w3.org/2000/svg"
   xmlns:svg="http://www.w3.org/2000/svg"
   xmlns:rdf="http://www.w3.org/1999/02/22-rdf-syntax-ns#"
   xmlns:cc="http://creativecommons.org/ns#"
   xmlns:dc="http://purl.org/dc/elements/1.1/">
  <sodipodi:namedview
     id="namedview911"
     pagecolor="#ffffff"
     bordercolor="#666666"
     borderopacity="1.0"
     inkscape:pageshadow="2"
     inkscape:pageopacity="0.0"
     inkscape:pagecheckerboard="0"
     showgrid="false"
     inkscape:zoom="0.43299515"
     inkscape:cx="509.24358"
     inkscape:cy="487.30338"
     inkscape:window-width="1366"
     inkscape:window-height="731"
     inkscape:window-x="0"
     inkscape:window-y="0"
     inkscape:window-maximized="1"
     inkscape:current-layer="layer1"
     inkscape:snap-page="true" />
  <defs
     id="defs2">
    <rect
       x="76.648693"
       y="307.32388"
       width="153.01314"
       height="38.228273"
       id="rect1992" />
    <rect
       x="-246.51316"
       y="112.34692"
       width="172.64262"
       height="49.670534"
       id="rect1971" />
    <rect
       x="-107.78077"
       y="44.235576"
       width="467.51947"
       height="169.5289"
       id="rect1959" />
    <clipPath
       clipPathUnits="userSpaceOnUse"
       id="clipPath1046">
      <rect
         style="fill:#ffffff;stroke-width:1.7"
         id="rect1048"
         width="54.870834"
         height="68.136383"
         x="7.1919003"
         y="77.167549" />
    </clipPath>
  </defs>
  <metadata
     id="metadata5">
    <rdf:RDF>
      <cc:Work
         rdf:about="">
        <dc:format>image/svg+xml</dc:format>
        <dc:type
           rdf:resource="http://purl.org/dc/dcmitype/StillImage" />
      </cc:Work>
    </rdf:RDF>
  </metadata>
  <g
     id="layer3"
     style="display:none">
    <ellipse
       style="fill:none;stroke:#ff0000;stroke-width:1.2882;stroke-opacity:1"
       id="path1132"
       cx="-197.06158"
       cy="-57.841015"
       rx="97.630379"
       ry="97.302155"
       transform="rotate(-151.95998)" />
    <path
       style="fill:none;stroke:#ff0000;stroke-width:1.02269;stroke-linecap:butt;stroke-linejoin:miter;stroke-miterlimit:4;stroke-dasharray:none;stroke-opacity:1"
       d="m 52.516748,242.8415 c 26.723027,26.36211 72.700282,40.32048 104.590272,36.1075 25.57412,-3.74485 61.75521,-20.80392 77.03748,-36.82429"
       id="path1985" />
    <rect
       style="fill:#2effff;fill-opacity:1;stroke-width:3"
       id="rect994"
       width="77.727119"
       height="50.060429"
       x="-149.32657"
       y="-67.53875" />
  </g>
  <g
     id="layer4"
     style="display:inline">
    <circle
       style="fill:#ffffff;fill-opacity:1;stroke-width:2.98633"
       id="path950"
       cx="142.875"
       cy="142.875"
       r="142.22412" />
  </g>
  <g
     id="layer1"
     style="display:inline">
    <path
       id="path109"
       style="display:inline;fill:#f05a28;fill-opacity:1;stroke:none;stroke-width:0;stroke-miterlimit:4;stroke-dasharray:none"
       d="M 540 117.58789 A 422.41183 422.41183 0 0 0 117.58789 540 A 422.41183 422.41183 0 0 0 119.5 578.04102 C 119.66185 578.47901 119.7653 578.91341 119.92969 579.35156 C 220.92081 579.45417 316.28868 579.63342 424.24805 579.48047 C 428.67512 579.47447 434.23836 580.09638 437.05078 583.0957 C 440.14047 586.39073 443.32601 593.26409 444.29297 595.89453 C 446.08035 600.75678 445.78713 602.44385 432.83594 606.5 C 425.5691 608.77587 259.4771 652.67768 143.2793 683.43945 C 153.39024 711.37874 166.42276 738.17243 182.16016 763.375 C 289.0911 710.67205 440.20953 636.29938 450.28906 632.38477 C 458.65149 629.13702 460.26963 629.65859 462.19141 631.77539 C 464.86769 634.72331 467.7314 641.47955 467.98047 644.80273 C 468.17383 647.38181 466.37228 649.33897 462.89258 652.59375 C 448.76123 665.81161 331.16336 766.93242 244.66211 841.22461 C 264.79895 860.9942 286.71063 878.54564 310.01758 893.72461 C 360.29107 827.6182 406.64559 757.39722 459.29883 693.18945 C 461.20547 691.11088 462.78241 690.23746 464.0332 690.22852 C 467.22966 690.20572 468.30361 695.82963 467.36523 701.42969 C 466.67668 705.53887 448.1303 782.40065 445.21484 793.05469 C 429.93897 841.31758 409.56021 887.8488 395.50195 936.48438 C 441.38031 953.25084 490.23937 962.08261 540 962.12891 C 589.10314 962.08271 637.30785 953.48213 682.625 937.16211 C 669.37355 889.58634 653.8985 840.82779 637.3418 794.22266 C 633.33508 783.29158 619.56587 701.13672 618.66797 691.72656 C 618.11659 685.94808 619.50872 683.92684 621.45703 683.84766 C 623.40534 683.76846 625.90997 685.63197 627.58398 687.62305 C 673.60153 756.72175 724.51112 824.33988 767.08398 895.59375 C 793.53419 878.67382 818.21792 858.72362 840.58984 835.97266 C 755.6946 766.64081 643.68942 674.68836 620.93945 651.98438 C 619.00165 650.05054 617.73712 648.24541 618.24414 645.75977 C 619.05183 641.80007 621.74149 632.60329 626.23633 629.88086 C 627.77029 628.95166 630.07298 629.00302 632.52344 629.96289 C 650.16159 636.87274 704.97736 664.52315 814.04492 719.08789 C 845.96125 735.05512 872.06771 747.76177 899.27539 761.08984 C 914.7654 735.90636 927.56678 709.16519 937.46875 681.30664 C 806.11416 648.50759 644.77491 606.84193 640.53711 604.83203 C 637.60703 603.44234 635.68364 601.81203 635.90625 597.04102 C 636.10097 592.86528 640.1565 584.84342 642.89258 580.90625 C 644.52628 578.55538 646.73634 578.10066 649.27539 578.10156 C 651.67981 578.10228 828.74232 578.57994 960.11328 578.96094 C 960.26174 578.64662 960.35501 578.34521 960.50195 578.03125 A 422.41183 422.41183 0 0 0 962.41211 540 A 422.41183 422.41183 0 0 0 540 117.58789 z M 685.26172 266.46289 C 783.86513 266.59229 793.32362 417.74411 695.54883 430.85938 C 695.54883 430.85937 678.15219 430.40333 671.16211 436.4082 C 662.56172 443.79639 647.28511 512.59163 637.13281 521.97461 C 632.75302 526.02248 628.53971 535.47468 628.2793 544.42773 C 627.86725 558.58811 591.31326 642.05547 588.11914 652.93945 C 587.1822 656.13213 586.73452 663.26349 587.6582 667.61523 C 596.60272 709.75572 604.9991 762.37792 605.6875 772.35742 C 607.23132 794.73797 609.54827 797.74691 599.57617 797.71289 C 595.80417 797.69969 595.17553 797.76189 590.51367 798.03516 C 588.90945 798.12916 585.16298 800.99971 585.9043 805.47656 C 591.93408 841.89159 594.98265 865.30757 598.57812 901.10938 C 601.37063 928.91529 593.90706 937.09349 583.31055 937.37695 C 569.45261 937.74772 567.68085 918.2731 565.79102 903.43555 C 562.35028 876.42156 550.04035 808.33708 549.67188 806.02344 C 549.4041 804.34329 546.75092 801.71072 543.64453 801.54102 C 543.27935 801.52102 538.27489 801.28376 537.51562 804.8457 L 515.9668 905.94336 C 514.53666 912.60138 510.36771 933.94332 492.39258 932.80273 C 475.28632 931.71729 481.01092 907.56685 485.39453 888.32422 C 494.46147 848.52337 499.12722 803.60692 499.2168 800.73633 C 499.268 799.09473 496.88844 796.99286 494.41406 796.88477 C 490.08711 796.69579 487.45117 796.93555 487.45117 796.93555 C 477.61752 795.50632 474.75073 793.7373 477.02344 785.28711 C 489.74525 737.98576 493.08005 718.26027 498.82422 669.51562 C 499.26933 665.73821 499.54292 663.09657 498.00586 658.79297 L 472.24219 586.65625 C 460.86528 554.80194 451.88521 543.19536 453.64844 529.23828 C 455.35157 515.75678 444.10804 519.65117 443.04297 511.77539 C 441.79901 502.57685 448.31912 500.38477 454.99414 500.38477 C 463.3698 500.38477 465.96382 495.40447 464.42188 485.86914 C 463.30068 478.93564 449.54269 451.1175 445.20508 439.32617 C 441.0801 428.11299 432.16486 432.95394 413.24023 432.91992 C 343.13807 432.79909 307.94238 350.75587 354.98438 297.17383 C 392.98373 253.89192 464.93799 260.22617 489.63867 310.36914 C 497.78299 326.90232 492.19581 333.31822 517.82422 332.85352 C 534.18768 332.55681 547.59426 343.44274 592.61523 391.24805 C 618.36871 418.59425 636.45891 435.32849 643.84766 438.86719 C 646.27169 440.02814 646.89004 437.28881 647.10547 435.53125 C 647.7537 430.23832 645.00447 427.84111 632.0332 416.27148 C 571.5371 362.31242 606.77144 266.35975 685.26172 266.46289 z M 682.4375 285.61133 C 639.74989 285.2878 602.13634 330.61294 627.08398 379.59961 C 644.5522 413.89996 657.69484 412.90571 666.83789 376.5918 C 675.65644 341.56803 691.32564 334.38603 685.68945 367.95117 C 683.69152 379.84985 679.9847 394.8274 677.45117 401.23438 C 673.70475 410.70811 676.39607 412.84268 691.86133 412.67188 C 743.77824 412.09391 766.66593 344.50449 728.0293 305.86523 C 713.98162 291.81648 697.8777 285.72835 682.4375 285.61133 z M 418.51367 287.34766 C 403.90798 287.54013 388.71553 291.66568 377.91406 300.75586 C 352.32369 322.29191 338.86094 360.91759 364.32617 391.18359 C 373.9666 402.64146 388.43444 413.63243 396.60352 414.87109 C 429.11709 419.80103 434.49643 413.93787 427.51953 400.88281 C 424.74668 395.69428 415.95103 372.95312 412.11133 365.46289 C 404.57155 350.75488 406.97015 333.00391 444.42383 333.00391 C 478.96913 333.00391 486.58401 330.32762 458.67383 300.34766 C 450.86822 291.96321 435.06679 287.12952 418.51367 287.34766 z M 469.92969 351.72266 C 464.99549 351.82391 458.7199 352.82617 451.31836 352.82617 C 435.54208 355.54702 425.02019 347.97898 435.55664 370.83203 C 438.95251 378.96009 442.6545 386.90979 444.53516 392.35938 C 445.72283 395.80087 447.55167 402.75089 451.07227 404.96875 C 457.13228 407.32804 469.04213 396.99884 474.04883 384.77539 C 484.33115 359.67172 486.30699 354.10003 474.4082 351.99219 C 473.06932 351.75501 471.57442 351.68891 469.92969 351.72266 z M 505.91797 353.12695 C 501.3447 353.19585 499.01683 361.92944 496.85547 372.04492 C 493.20376 389.13552 486.9962 399.0674 468.73828 418.70703 C 462.8661 425.02357 462.70498 427.88219 465.59961 437.97852 C 471.95352 460.14064 474.65015 459.45248 478.79883 449.13086 C 487.87797 426.5427 511.08922 365.87134 512.8125 361.29492 C 514.536 356.7185 509.90034 353.06697 505.91797 353.12695 z M 536.16211 368.96094 C 533.2268 369.0948 531.44748 371.55445 530.77734 372.24414 C 526.2602 376.89315 495.99023 451.05979 495.99023 457.79102 C 495.99023 458.10468 495.07865 463.8935 497.89844 464.62695 C 507.61677 467.15489 535.05361 466.13672 565.14844 466.13672 C 565.14844 466.13672 625.65183 470.11471 632.00586 467.88672 C 635.90085 466.52095 634.67935 462.18719 632.29492 458.89258 C 621.2053 443.56988 587.44336 412.55469 587.44336 412.55469 C 569.09598 392.20099 549.99439 374.689 539.25781 369.64258 C 538.35613 369.21877 537.52423 369.01465 536.76367 368.9668 C 536.55769 368.9538 536.3578 368.95224 536.16211 368.96094 z M 537.95508 484.17578 C 478.54118 484.33172 462.21775 492.20214 496.2168 505.86914 C 504.90276 509.36067 506.28484 515.77417 500.48633 515.77148 C 469.6063 515.75718 468.61258 526.61846 474.45898 532.93359 C 479.32259 538.18717 511.23437 609.21094 511.23438 609.21094 C 513.23901 612.86888 519.81563 619.3099 524.26758 619.23242 C 524.26758 619.23242 530.63316 619.84766 540.06641 619.84766 C 549.21366 619.84766 556.29297 621.62891 556.29297 621.62891 C 561.33973 621.97058 568.73749 618.3564 570.83203 613.39648 L 582.41992 585.95508 C 593.44934 563.49251 596.55128 552.56244 604.34766 541.55664 C 611.92024 530.86678 605.68479 529.93865 594.66406 530.91211 C 579.81256 532.22391 589.57204 518.4082 606.8418 517.23242 C 619.5802 516.36513 627.00783 509.81143 629.61914 502.80078 C 631.88032 496.73003 635.06699 487.09564 626.64258 486.74414 C 623.19089 486.6001 575.34961 484.89453 575.34961 484.89453 C 561.43738 484.3822 548.95765 484.1469 537.95508 484.17578 z M 536.97656 553.63281 C 549.74161 553.4569 563.823 560.52508 569.18359 574.4707 C 574.04274 587.11182 569.66738 596.39826 563.28516 603.60938 C 549.92196 618.70807 518.77017 612.88777 513.25977 582.67188 C 509.73332 563.3349 522.50951 553.83218 536.97656 553.63281 z "
       transform="scale(0.26458333)"
       inkscape:export-filename="/home/lukas/Webpages/bilfri.by/static/img/favicon.png"
       inkscape:export-xdpi="14.549915"
       inkscape:export-ydpi="14.549915" />
  </g>
  <g
     id="layer2"
     style="display:inline">
    <g
       id="g2017"
       style="fill:#ffffff;fill-opacity:1">
      <g
         id="g2025"
         style="fill:#ffffff;fill-opacity:1">
        <g
           aria-label="Bilfri By"
           transform="translate(-0.52916667)"
           id="text1957"
           style="font-style:italic;font-variant:normal;font-weight:800;font-stretch:normal;font-size:42.3333px;line-height:1.25;font-family:'Besley*';-inkscape-font-specification:'Besley*, Ultra-Bold Italic';font-variant-ligatures:normal;font-variant-caps:normal;font-variant-numeric:normal;font-variant-east-asian:normal;letter-spacing:0px;white-space:pre;display:inline;fill:#ffffff;fill-opacity:1;stroke:none;stroke-width:1;stroke-miterlimit:4;stroke-dasharray:none" />
        <g
           aria-label="København"
           transform="translate(1.0583333)"
           id="text1990"
           style="font-style:normal;font-weight:normal;font-size:10.5833px;line-height:1.25;font-family:sans-serif;white-space:pre;fill:#ffffff;fill-opacity:1;stroke:none" />
      </g>
    </g>
  </g>
</svg>
