<?xml version="1.0" encoding="UTF-8" standalone="no"?>
<svg
   xmlns:dc="http://purl.org/dc/elements/1.1/"
   xmlns:cc="http://creativecommons.org/ns#"
   xmlns:rdf="http://www.w3.org/1999/02/22-rdf-syntax-ns#"
   xmlns:svg="http://www.w3.org/2000/svg"
   xmlns="http://www.w3.org/2000/svg"
   width="1080"
   height="1080"
   viewBox="0 0 285.74999 285.75001"
   version="1.1"
   id="svg8">
  <defs
     id="defs2">
    <rect
       x="76.648693"
       y="307.32388"
       width="153.01314"
       height="38.228273"
       id="rect1992" />
    <rect
       x="-246.51316"
       y="112.34692"
       width="172.64262"
       height="49.670534"
       id="rect1971" />
    <rect
       x="-107.78077"
       y="44.235576"
       width="467.51947"
       height="169.5289"
       id="rect1959" />
    <clipPath
       clipPathUnits="userSpaceOnUse"
       id="clipPath1046">
      <rect
         style="fill:#ffffff;stroke-width:1.7"
         id="rect1048"
         width="54.870834"
         height="68.136383"
         x="7.1919003"
         y="77.167549" />
    </clipPath>
  </defs>
  <metadata
     id="metadata5">
    <rdf:RDF>
      <cc:Work
         rdf:about="">
        <dc:format>image/svg+xml</dc:format>
        <dc:type
           rdf:resource="http://purl.org/dc/dcmitype/StillImage" />
        <dc:title></dc:title>
      </cc:Work>
    </rdf:RDF>
  </metadata>
  <g
     id="layer3"
     style="display:none">
    <ellipse
       style="fill:none;stroke:#ff0000;stroke-width:1.2882;stroke-opacity:1"
       id="path1132"
       cx="-197.06158"
       cy="-57.841015"
       rx="97.630379"
       ry="97.302155"
       transform="rotate(-151.95998)" />
    <path
       style="fill:none;stroke:#ff0000;stroke-width:1.02269;stroke-linecap:butt;stroke-linejoin:miter;stroke-miterlimit:4;stroke-dasharray:none;stroke-opacity:1"
       d="m 52.516748,242.8415 c 26.723027,26.36211 72.700282,40.32048 104.590272,36.1075 25.57412,-3.74485 61.75521,-20.80392 77.03748,-36.82429"
       id="path1985" />
    <rect
       style="fill:#2effff;fill-opacity:1;stroke-width:3"
       id="rect994"
       width="77.727119"
       height="50.060429"
       x="-149.32657"
       y="-67.53875" />
  </g>
  <g
     id="layer4"
     style="display:inline">
    <circle
       style="fill:#ffffff;fill-opacity:1;stroke-width:2.98633"
       id="path950"
       cx="142.875"
       cy="142.875"
       r="142.22412" />
  </g>
  <g
     id="layer1"
     style="display:inline">
    <path
       id="path109"
       style="display:inline;fill:#f05a28;fill-opacity:1;stroke:none;stroke-width:0;stroke-miterlimit:4;stroke-dasharray:none"
       d="M 539.83398,0 A 540,540 0 0 0 0,540 540,540 0 0 0 1.4316406,579.30078 c 161.1841094,0.009 272.8189094,0.3922 422.8164094,0.17969 4.42707,-0.006 9.99031,0.61591 12.80273,3.61523 3.08969,3.29503 6.27523,10.16839 7.24219,12.79883 1.78738,4.86225 1.49416,6.54932 -11.45703,10.60547 C 422.69502,609.67599 41.154512,710.59041 28.757812,713.86914 A 540,540 0 0 0 75.746094,815.80273 C 91.520326,808.01487 436.22829,637.84558 450.28906,632.38477 c 8.36243,-3.24775 9.98057,-2.72618 11.90235,-0.60938 2.67628,2.94792 5.53999,9.70416 5.78906,13.02734 0.19336,2.57908 -1.60819,4.53624 -5.08789,7.79102 C 442.80245,671.3852 168.08907,907.01912 154.78516,918.42969 A 540,540 0 0 0 540,1080 540,540 0 0 0 932.39062,910.98242 C 916.86292,898.37891 653.7957,684.77423 620.93945,651.98438 c -1.9378,-1.93384 -3.20233,-3.73897 -2.69531,-6.22461 0.80769,-3.9597 3.49735,-13.15648 7.99219,-15.87891 1.53396,-0.9292 3.83665,-0.8779 6.28711,0.082 17.63815,6.90985 72.45392,34.56026 181.52148,89.125 95.28864,47.67137 180.03738,88.23688 191.87308,93.89258 a 540,540 0 0 0 46.7754,-103.4375 C 932.40097,681.02143 646.19975,607.5177 640.53711,604.83203 c -2.93008,-1.38969 -4.85347,-3.02 -4.63086,-7.79101 0.19472,-4.17574 4.25025,-12.1976 6.98633,-16.13477 1.6337,-2.35087 3.84376,-2.80559 6.38281,-2.80469 3.3207,9.9e-4 341.32416,0.7623 429.29301,1.18555 A 540,540 0 0 0 1080,540 540,540 0 0 0 540,0 540,540 0 0 0 539.83398,0 Z m -57.8164,45.931641 c 1.48549,0.01879 2.94322,0.109673 4.37109,0.271484 5.75209,0.579971 10.55116,2.169173 14.39844,4.765625 3.90123,2.583111 6.37953,6.003237 7.43359,10.263672 1.29421,5.231163 0.50054,9.776647 -2.3789,13.636719 -2.89278,3.80614 -6.63083,6.277999 -11.21485,7.412109 -4.20651,1.040713 -8.22773,0.862065 -12.06445,-0.535156 -3.78283,-1.410563 -6.208,-4.273527 -7.27539,-8.587891 -0.54705,-2.211109 -0.63075,-4.049816 -0.25,-5.517578 0.38085,-1.467762 0.82133,-2.693386 1.32227,-3.675781 0.50095,-0.982395 0.65946,-1.850455 0.47265,-2.605469 -0.38692,-1.563956 -2.41483,-1.893616 -6.08203,-0.986328 -2.75041,0.680466 -5.34212,2.237025 -7.77344,4.669922 -2.3907,2.365624 -4.27851,5.838161 -5.66406,10.416015 -1.33163,4.564511 -1.84473,10.470816 -1.53906,17.720704 l 0.11718,1.861328 c 0.0101,1.199231 0.21137,2.007125 0.60157,2.425781 0.37639,0.364722 1.3181,0.359867 2.82812,-0.01367 l 14.64258,-3.621094 c 1.51002,-0.373591 2.51413,-0.364637 3.01172,0.02734 0.53818,0.324697 0.9998,1.268075 1.38672,2.832031 l 2.02148,8.169926 c 0.33356,1.34824 0.32582,2.23765 -0.0254,2.66797 -0.36472,0.37638 -1.22208,0.73284 -2.57031,1.0664 l -17.39258,4.30274 c -1.77968,0.4403 -2.83154,0.92862 -3.15625,1.46679 -0.32469,0.53818 -0.44217,1.56899 -0.35156,3.0918 l 3.82226,90.39453 c 0.11667,1.85973 -0.0944,3.08619 -0.63476,3.67774 -0.52707,0.64547 -1.8963,1.24006 -4.10742,1.78711 l -18.6875,4.625 c -2.37289,0.58707 -3.82761,0.6026 -4.36524,0.0488 -0.53762,-0.55375 -0.87188,-1.78751 -1.00195,-3.70117 l -3.9043,-89.34375 c -0.0899,-1.75187 -0.37699,-2.79672 -0.86133,-3.13476 -0.48423,-0.33804 -1.75144,-0.25311 -3.80078,0.2539 l -6.71484,1.66016 c -1.24039,0.30688 -2.06937,0.3132 -2.48633,0.0156 -0.36306,-0.31079 -0.69703,-1.08774 -1.00391,-2.32812 l -1.96093,-7.92773 c -0.40028,-1.61789 -0.50037,-2.70802 -0.29688,-3.27344 0.25741,-0.57877 1.19657,-1.06848 2.81446,-1.46875 l 9.78711,-2.42188 c 1.6718,-0.41362 2.68378,-0.83531 3.03515,-1.26562 0.33804,-0.48425 0.47464,-1.31997 0.41016,-2.50586 l -0.1875,-5.962894 c -0.40794,-9.513807 1.20899,-17.554563 4.84961,-24.121094 3.64061,-6.566534 8.632,-11.835718 14.97461,-15.808594 6.38316,-4.040151 13.48489,-7.028234 21.30468,-8.962891 4.975,-1.230844 9.69002,-1.818082 14.14649,-1.761718 z m 180.52734,11.136718 c 1.62869,-0.0294 3.3067,0.148177 5.03516,0.533203 4.66348,1.038819 8.35437,3.256461 11.07031,6.650391 2.71592,3.393933 3.5415,7.476121 2.47852,12.248047 -1.06298,4.771928 -3.54367,8.118804 -7.44336,10.039062 -3.89969,1.920263 -8.18222,2.359131 -12.84571,1.320313 -4.60923,-1.026739 -8.27038,-3.236929 -10.98632,-6.630859 -2.71592,-3.393933 -3.54345,-7.476122 -2.48047,-12.248047 1.06295,-4.771928 3.54364,-8.118803 7.44336,-10.039063 2.4373,-1.200164 5.01404,-1.824055 7.72851,-1.873047 z m -296.69336,23.78711 c 0.59649,-0.02965 1.02602,0.09135 1.28711,0.361328 0.72363,0.646314 1.35307,2.222212 1.88867,4.726562 l 20.56055,101.759761 c 0.25625,1.22693 0.58144,2.2702 0.97461,3.12891 0.71693,1.5659 1.83422,2.00046 3.34961,1.30664 1.76796,-0.80945 3.17546,-2.73657 4.22461,-5.7832 1.07656,-3.12027 1.67351,-7.08937 1.78906,-11.9082 0.10154,-1.51297 0.24768,-2.52749 0.43945,-3.04297 0.24215,-0.53861 1.22045,-0.80403 2.93555,-0.79492 l 7.4961,-0.041 c 1.34255,-0.004 2.23235,0.13916 2.66992,0.42773 0.41446,0.23796 0.6353,1.05225 0.66211,2.44532 -0.0333,9.66931 -2.00524,18.24187 -5.91602,25.71484 -3.9107,7.47297 -9.75423,12.98918 -17.5332,16.55078 -5.50589,2.52088 -10.39121,3.26194 -14.65625,2.2207 -4.21452,-1.06436 -7.3177,-3.76917 -9.30664,-8.11328 -0.53193,-1.16179 -1.05542,-2.57206 -1.57032,-4.23047 -0.46438,-1.68153 -0.82224,-3.19775 -1.07421,-4.54882 l -19.29688,-88.5918 c -0.43274,-1.87933 -0.88796,-3.13759 -1.36328,-3.77539 -0.44794,-0.71144 -1.807,-0.54659 -4.08008,0.49414 l -7.12305,3.26172 c -1.36384,0.62443 -2.33209,0.91356 -2.90234,0.86914 -0.59338,-0.0949 -1.20174,-0.82367 -1.82617,-2.1875 l -3.67774,-8.03125 c -0.55505,-1.21231 -0.76032,-2.06624 -0.61914,-2.5586 0.16857,-0.565984 0.83235,-1.114551 1.99414,-1.646479 l 36.29493,-16.617188 c 1.9258,-0.881727 3.38476,-1.347069 4.3789,-1.396484 z m 212.9043,4.115234 c 6.72219,-0.0199 12.28407,1.770884 16.68359,5.369141 4.45506,3.597997 6.69115,8.424945 6.70899,14.480466 0.0201,6.55553 -1.88061,11.80991 -5.70313,15.76563 -3.82186,3.90016 -8.56577,5.8583 -14.23242,5.875 -4.66663,0.0139 -8.61496,-1.41739 -11.8457,-4.29688 -3.23087,-2.93493 -4.85197,-6.31903 -4.86328,-10.15234 -0.008,-2.44443 0.26409,-4.28005 0.8164,-5.50391 0.60735,-1.27957 1.18844,-2.22514 1.74219,-2.83789 0.55375,-0.61274 0.82959,-1.16992 0.82812,-1.66992 -0.002,-0.72222 -0.67058,-1.0801 -2.0039,-1.07617 -1.94444,0.006 -4.16282,1.12205 -6.65625,3.35156 -2.49361,2.17403 -5.01254,5.21102 -7.55664,9.10742 -2.54423,3.84085 -4.89284,8.2367 -7.04492,13.1875 -2.15227,4.89525 -3.85937,10.06549 -5.1211,15.51367 l -6.33398,27.93555 c -0.43873,1.94574 -0.93486,3.28201 -1.48828,4.00586 -0.49804,0.66814 -1.99612,1.00435 -4.4961,1.01172 l -19.58398,0.0586 c -2.22221,0.007 -3.61112,-0.21149 -4.16797,-0.65429 -0.50147,-0.49853 -0.53303,-1.61047 -0.0937,-3.33399 l 14.48047,-63.04297 c 0.43888,-1.89019 0.49106,-3.08497 0.15625,-3.58398 -0.33497,-0.55457 -1.69708,-0.82735 -4.08594,-0.82031 l -6.25,0.0176 c -1.66667,0.005 -2.66716,-0.24134 -3.00195,-0.74023 -0.33482,-0.49901 -0.5047,-1.60982 -0.50977,-3.332031 l -0.0234,-7.916016 c -0.003,-1.27777 0.1614,-2.140512 0.49218,-2.585937 0.38758,-0.445589 1.19379,-0.670229 2.41602,-0.673828 l 36.08203,-0.105469 c 2.16665,-0.0063 3.66716,0.238871 4.50195,0.736328 0.89021,0.441824 1.11644,1.636288 0.67774,3.582031 l -1.5625,7.169922 c -0.49394,2.05702 -0.62815,3.36307 -0.4043,3.91797 0.27943,0.55473 1.24844,-0.33559 2.9082,-2.67383 3.48574,-4.843622 7.53023,-8.71668 12.13282,-11.61914 4.6024,-2.95802 10.06904,-4.448134 16.40234,-4.466797 z m 43.04102,7.894531 c 0.49259,0.02435 1.07802,0.11268 1.75585,0.263672 l 39.44922,8.787114 c 2.54864,0.56772 3.95958,1.13834 4.23047,1.71093 0.27087,0.5726 -0.10187,1.85557 -1.11523,3.84961 l -27.25196,54.88867 c -0.59111,1.12051 -0.98998,2.14065 -1.19531,3.0625 -0.37447,1.68102 0.2521,2.70403 1.87891,3.06641 1.89793,0.42278 4.15165,-0.24195 6.76172,-1.99414 2.66431,-1.74011 5.4529,-4.42096 8.36523,-8.04102 1.16369,-1.39137 2.00506,-2.22876 2.52344,-2.51171 0.53044,-0.33718 1.57291,0.095 3.12695,1.29492 l 6.0625,4.59375 c 1.41554,1.05524 1.86432,1.98024 1.34571,2.77539 -0.51863,0.79515 -1.32093,1.84171 -2.40626,3.13672 -5.77631,7.02319 -12.32911,12.16545 -19.6582,15.42773 -7.31699,3.20805 -14.96034,3.92409 -22.93164,2.14844 -5.91068,-1.31664 -10.24032,-3.73163 -12.98633,-7.2461 -2.73391,-3.56868 -3.58727,-7.65833 -2.56054,-12.26757 0.27784,-1.24721 0.767,-2.67466 1.46679,-4.28321 0.69982,-1.60854 1.27978,-2.93058 1.73828,-3.96679 l 20.20508,-42.79883 c 0.83243,-1.69284 1.14047,-2.81839 0.92383,-3.37891 -0.15042,-0.60266 -1.3115,-1.14573 -3.48047,-1.6289 l -7.72656,-1.72071 c -1.62678,-0.36237 -2.60813,-0.80939 -2.94531,-1.33984 -0.28294,-0.51837 -0.23768,-1.61781 0.13672,-3.29883 l 1.75781,-7.890624 c 0.32615,-1.464116 0.76957,-2.304839 1.33008,-2.521484 0.30737,-0.102287 0.70661,-0.14154 1.19922,-0.117188 z m 179.94726,22.519536 c 0.95569,0.0159 2.23782,0.61914 3.8457,1.80859 l 59.02149,43.66016 c 12.05916,8.92054 19.45789,17.74413 22.19336,26.4707 2.81318,8.71494 1.5102,16.73572 -3.90821,24.06055 -4.79065,6.47622 -10.36072,10.13009 -16.71093,10.96093 -6.31718,0.78619 -13.39197,-0.4405 -21.22461,-3.67773 -1.90524,-0.78743 -3.30594,-1.51109 -4.19922,-2.17188 -0.81557,-0.6724 -1.45348,-0.69561 -1.91602,-0.0703 -0.42953,0.58063 -0.2869,1.13544 0.42774,1.66406 0.71461,0.52863 1.71467,1.5113 3.00195,2.94727 4.44619,5.29297 6.90891,10.46507 7.38672,15.51758 0.47783,5.05251 -1.39794,10.43735 -5.62695,16.15429 -7.40075,10.00465 -17.06964,14.80716 -29.00586,14.40821 -11.90317,-0.44362 -26.40751,-6.99253 -43.51368,-19.64649 l -58.01757,-42.91797 c -1.74189,-1.28852 -2.7439,-2.27119 -3.00391,-2.94726 -0.22702,-0.72074 0.32098,-1.97322 1.64258,-3.75977 l 6.4414,-8.70898 c 0.75989,-1.02726 1.42294,-1.64392 1.98829,-1.84766 0.59837,-0.24839 1.45569,0.0412 2.57226,0.86719 l 11.92578,8.82031 c 1.87586,1.38764 3.14622,2.05215 3.8125,1.99219 0.71096,-0.0269 1.78474,-0.68341 3.22071,-1.9707 l 60.10156,-53.08203 c 1.6128,-1.43291 2.32685,-2.49395 2.14453,-3.18164 -0.10457,-0.69933 -1.29437,-1.89119 -3.57227,-3.57618 L 794.47266,132.5 c -1.92053,-1.42068 -2.98388,-2.55338 -3.18946,-3.39648 -0.12774,-0.85473 0.50311,-2.21984 1.89063,-4.09571 l 5.2539,-7.10156 c 1.28855,-1.74188 2.39378,-2.58206 3.31641,-2.52148 z m -519.35937,10.67968 c 0.53557,-0.0108 1.07505,0.003 1.61718,0.0391 4.33704,0.29185 7.90427,2.44077 10.70313,6.44921 2.79885,4.00845 3.58926,8.0994 2.36914,12.27149 -1.22013,4.17209 -3.78969,7.62608 -7.70703,10.36133 -3.87179,2.70343 -7.97547,3.90904 -12.3125,3.61718 -4.33704,-0.29185 -7.90623,-2.44272 -10.70508,-6.45117 -2.79886,-4.00844 -3.58731,-8.09744 -2.36719,-12.26953 1.22013,-4.17209 3.76493,-7.61101 7.63672,-10.31445 3.42767,-2.39334 7.01663,-3.62741 10.76563,-3.70313 z m 22.66015,35.03516 c 0.0996,-0.003 0.18804,0.006 0.26367,0.0293 0.6051,0.18731 1.29909,1.3293 2.08399,3.42382 l 22.03906,57.18165 c 0.42641,1.19293 0.90853,2.17486 1.44922,2.94921 0.98596,1.41207 2.16278,1.64166 3.5293,0.6875 1.59426,-1.11318 2.62715,-3.22405 3.09961,-6.33203 0.518,-3.13977 0.42854,-7.00653 -0.27149,-11.59961 -0.23909,-1.79804 -0.28824,-2.98334 -0.14648,-3.55664 0.10996,-0.61884 1.13171,-1.09518 3.0664,-1.42969 l 7.48438,-1.36328 c 1.73443,-0.33019 2.7195,-0.0349 2.95508,0.88477 0.23559,0.91964 0.46452,2.21549 0.68554,3.89062 1.27282,9.00396 0.63455,17.31123 -1.91406,24.91797 -2.58042,7.56119 -7.22009,13.67816 -13.91602,18.35352 -4.96499,3.46677 -9.66903,5.02498 -14.11523,4.67383 -4.478,-0.39671 -8.07,-2.53056 -10.77344,-6.40235 -0.73151,-1.04766 -1.45335,-2.37366 -2.16601,-3.97656 -0.71266,-1.60289 -1.2961,-2.92271 -1.75,-3.96094 l -17.88867,-43.8164 c -0.68517,-1.75761 -1.30764,-2.74572 -1.86719,-2.96485 -0.54581,-0.29648 -1.72876,0.19069 -3.55078,1.46289 l -6.49219,4.53321 c -1.36651,0.95415 -2.35967,1.37558 -2.97852,1.26562 -0.57329,-0.14176 -1.35193,-0.918 -2.33789,-2.33008 l -4.62695,-6.6289 c -0.85874,-1.22987 -1.18006,-2.12405 -0.96094,-2.6836 0.26468,-0.59135 0.96671,-1.28494 2.10547,-2.08007 l 33.13867,-23.13672 c 1.87327,-1.30799 3.15803,-1.97211 3.85547,-1.99219 z m 527.69531,0.3418 c -0.0778,0.003 -0.14803,0.017 -0.20898,0.041 -0.48761,0.19213 -1.3047,0.83064 -2.45313,1.91602 l -19.5371,17.16406 c -0.90553,0.85044 -1.51718,1.53621 -1.83594,2.06055 -0.28573,0.47967 0.26387,1.23164 1.64844,2.25586 l 12.86328,9.51562 c 3.08177,2.2797 6.56469,3.92394 10.44922,4.93164 3.88452,1.0077 7.68413,1.05409 11.40039,0.14063 3.76093,-0.88041 6.96234,-3.1066 9.60547,-6.67969 2.67617,-3.61775 3.56613,-6.96776 2.66796,-10.05078 -0.82046,-3.09465 -2.79347,-5.79859 -5.91992,-8.11133 l -15.81054,-11.69531 c -1.36784,-1.01183 -2.32482,-1.50889 -2.86915,-1.48828 z m -614.93164,31.56445 c 5.6948,0.0738 10.97866,2.07827 15.85352,6.01172 6.26922,5.05853 9.68669,10.77674 10.25,17.15625 0.52007,6.34462 -1.00099,13.36105 -4.56445,21.05078 -0.86679,1.87047 -1.64993,3.2388 -2.34766,4.10351 -0.70608,0.7866 -0.7557,1.4237 -0.15039,1.91211 0.56207,0.45353 1.12151,0.33437 1.67969,-0.35742 0.55818,-0.69177 1.58152,-1.65113 3.07031,-2.87695 5.4751,-4.21985 10.74633,-6.46144 15.81445,-6.72656 5.06812,-0.26512 10.37009,1.83531 15.9043,6.30078 9.68487,7.81456 14.07588,17.67701 13.17578,29.58594 -0.94334,11.87403 -8.09553,26.08904 -21.45703,42.64843 l -45.31641,56.16407 c -1.36057,1.6862 -2.38391,2.64556 -3.07031,2.87695 -0.72964,0.19651 -1.96001,-0.40337 -3.68945,-1.79883 l -8.43164,-6.80273 c -0.99443,-0.80239 -1.57996,-1.49106 -1.75977,-2.06446 -0.22304,-0.60828 0.1005,-1.4523 0.97266,-2.5332 l 9.31445,-11.54297 c 1.46523,-1.81591 2.1823,-3.05835 2.15039,-3.72656 0.003,-0.71145 -0.60812,-1.81199 -1.83398,-3.30078 l -50.50977,-62.27735 c -1.36388,-1.67157 -2.39314,-2.43061 -3.08789,-2.27734 -0.7031,0.0751 -1.94345,1.21487 -3.72266,3.41992 l -4.91992,6.09571 c -1.50011,1.85913 -2.67439,2.87495 -3.52539,3.04492 -0.85935,0.0918 -2.19776,-0.59532 -4.01367,-2.06055 l -6.875,-5.54687 c -1.6862,-1.36058 -2.48015,-2.50064 -2.38086,-3.41993 0.056,-0.95417 0.71283,-2.20913 1.96875,-3.76562 l 46.10156,-57.13672 c 9.41934,-11.67373 18.54707,-18.69414 27.38086,-21.06055 2.75795,-0.76391 5.43099,-1.12924 8.01953,-1.0957 z m 576.45118,2.98047 c -0.78867,0.0385 -1.85261,0.63382 -3.18946,1.78711 l -21.88867,19.36133 c -1.40293,1.24262 -2.07958,2.15946 -2.03125,2.74804 0.093,0.62162 1.07725,1.62603 2.95313,3.01367 l 11.32226,8.375 c 5.44897,4.03077 10.38202,6.46974 14.79883,7.31836 4.41681,0.84863 8.29707,0.50785 11.64258,-1.02539 3.34548,-1.53323 6.15779,-3.84204 8.4375,-6.92383 3.53517,-4.77899 4.6693,-9.01984 3.40039,-12.72265 -1.26894,-3.70281 -3.80125,-6.9573 -7.59766,-9.76563 L 797.9707,197.69531 c -1.65256,-1.22244 -2.88924,-1.79219 -3.71093,-1.70898 z m -587.91993,27.12109 c -0.80351,-0.0326 -1.59353,0.0483 -2.37304,0.24024 -3.12639,0.6897 -5.91147,2.54769 -8.35352,5.57422 l -12.34961,15.30468 c -1.22102,1.51326 -1.74567,2.5184 -1.57422,3.01367 0.17147,0.49528 0.77438,1.33826 1.81055,2.53125 l 16.32812,20.24219 c 0.81165,0.94045 1.47195,1.57941 1.98243,1.91992 0.46724,0.30563 1.24078,-0.21046 2.32226,-1.55078 l 10.04883,-12.45312 c 2.40716,-2.98329 4.19522,-6.39368 5.36524,-10.23242 1.17,-3.83875 1.3776,-7.6334 0.62109,-11.38477 -0.72162,-3.7946 -2.81261,-7.08799 -6.27149,-9.87891 -2.62658,-2.11935 -5.14609,-3.22824 -7.55664,-3.32617 z m 680.77539,30.09766 c 5.1631,0.0165 10.04794,0.65165 14.65625,1.9043 7.45041,2.01932 13.51587,6.50952 18.19727,13.4707 2.91422,4.33345 4.71728,8.10859 5.4082,11.32617 0.72194,3.26369 0.62683,6.20696 -0.28711,8.83008 -0.91394,2.62312 -2.3445,5.22559 -4.29101,7.80664 -1.96238,2.45784 -4.82402,5.31961 -8.58594,8.58594 -3.73092,3.31243 -7.92325,6.9347 -12.57617,10.86718 -4.60684,3.90148 -9.24375,8.05856 -13.91016,12.46875 -4.63541,4.4563 -8.79349,9.02542 -12.47265,13.70899 -1.5483,1.97852 -2.19087,3.11455 -1.92774,3.40625 0.30922,0.2607 1.50496,0.49383 3.58594,0.70117 8.03059,0.69187 15.84452,0.86197 23.43945,0.50781 7.67204,-0.33905 14.54825,-1.21571 20.62891,-2.62695 6.15778,-1.39614 10.98856,-3.27076 14.49219,-5.62695 1.10642,-0.74406 1.48749,-1.36985 1.14648,-1.87696 -0.34104,-0.5071 -0.8652,-0.79083 -1.57422,-0.84961 -0.63194,-0.0437 -1.44164,-0.30171 -2.42969,-0.77539 -0.91094,-0.45858 -1.98644,-1.61105 -3.22656,-3.45508 -2.32516,-3.45753 -2.96308,-6.94358 -1.91406,-10.46093 1.12612,-3.50226 3.25578,-6.30785 6.39062,-8.41602 4.10293,-2.75922 8.25223,-3.40762 12.44922,-1.94531 4.19699,1.46231 7.72199,4.31344 10.57422,8.55469 3.5033,5.20936 4.48132,10.54502 2.93164,16.00586 -1.50357,5.42982 -4.86094,9.89515 -10.07031,13.39843 -5.11715,3.44128 -11.72391,6.21127 -19.82031,8.3086 -8.0193,2.11243 -16.89732,3.49681 -26.63281,4.15234 -9.65841,0.67063 -19.5745,0.50899 -29.74805,-0.48242 -10.21969,-0.96041 -20.07924,-2.82984 -29.58203,-5.61133 -9.51791,-2.70438 -18.08606,-6.3836 -25.70118,-11.03711 -7.63017,-4.57641 -13.67624,-10.18378 -18.14062,-16.82226 -4.52636,-6.73068 -6.7941,-12.83884 -6.80078,-18.32422 -0.0527,-5.45438 1.29957,-10.21382 4.05664,-14.27735 2.72615,-4.10962 5.97952,-7.43435 9.75976,-9.97656 4.70224,-3.16225 9.75169,-4.51649 15.14649,-4.06055 5.3638,0.40985 9.62681,2.96572 12.78906,7.66797 2.26318,3.36534 3.23983,6.95872 2.93164,10.78125 -0.2621,3.79154 -2.21351,6.91213 -5.85547,9.36133 -2.67381,1.79815 -5.05902,2.73267 -7.15429,2.80274 -2.11037,0.14717 -3.96738,-0.0755 -5.57227,-0.66993 -1.60486,-0.59447 -3.01698,-1.15289 -4.23633,-1.67187 -1.23447,-0.44188 -2.29009,-0.36638 -3.16601,0.22265 -1.5674,1.05409 -2.38638,2.37359 -2.45703,3.96094 -0.11667,1.61836 0.64602,3.65042 2.28906,6.09375 2.44918,3.64195 5.79813,6.87943 10.04687,9.71289 4.27974,2.87956 9.12973,5.4102 14.54688,7.5918 1.52776,0.57937 2.4908,0.76637 2.89062,0.56445 0.38471,-0.12482 1.02042,-0.91935 1.90821,-2.38672 2.69354,-4.55633 6.08038,-9.17809 10.16015,-13.86328 4.12591,-4.71618 8.52944,-9.31738 13.21094,-13.80468 4.68153,-4.48731 9.21043,-8.70363 13.58594,-12.65039 4.42162,-3.97778 8.29778,-7.52231 11.6289,-10.63282 3.3311,-3.11051 5.68741,-5.63284 7.06641,-7.56445 0.55158,-0.77264 1.01057,-1.5827 1.37695,-2.43164 0.41248,-0.87994 0.21425,-1.91857 -0.59179,-3.11719 -0.93009,-1.38302 -2.90563,-2.33008 -5.92774,-2.8418 -2.97602,-0.54272 -6.79101,-0.68931 -11.44336,-0.43945 -0.97053,0.0501 -1.65523,-0.0259 -2.05664,-0.22461 -0.35532,-0.22969 -0.61325,-0.85889 -0.77148,-1.89062 l -0.58985,-8.94336 c -0.17411,-1.15494 -0.0684,-1.79511 0.31641,-1.91992 0.43082,-0.15582 1.19976,-0.30413 2.30859,-0.44727 3.29759,-0.43508 6.4959,-0.64859 9.59375,-0.63867 z m -646.68164,8.8418 c -0.9928,-0.0248 -1.95827,0.1028 -2.89648,0.38085 -3.75285,1.11224 -7.11278,3.50463 -10.07813,7.17969 l -11.04101,13.68555 c -1.2908,1.59973 -1.91189,2.81031 -1.86328,3.63476 0.005,0.78958 0.55615,1.87759 1.65234,3.26172 l 18.42383,22.6836 c 1.18258,1.4539 2.07006,2.16809 2.66016,2.14453 0.62498,-0.0668 1.66953,-1.00831 3.13476,-2.82422 l 8.84375,-10.95898 c 4.25614,-5.2748 6.90016,-10.10127 7.93359,-14.47852 1.03345,-4.37726 0.85422,-8.27077 -0.5371,-11.67774 -1.39133,-3.40695 -3.57727,-6.31353 -6.56055,-8.7207 -3.46969,-2.79963 -6.69347,-4.23628 -9.67188,-4.31054 z m 444.82813,4.41601 c 98.60341,0.1294 108.0619,151.28122 10.28711,164.39649 0,-10e-6 -17.39664,-0.45605 -24.38672,5.54882 -8.60039,7.38819 -23.877,76.18343 -34.0293,85.56641 -4.37979,4.04787 -8.5931,13.50007 -8.85351,22.45312 -0.41205,14.16038 -36.96604,97.62774 -40.16016,108.51172 -0.93694,3.19268 -1.38462,10.32404 -0.46094,14.67578 8.94452,42.14049 17.3409,94.76269 18.0293,104.74219 1.54382,22.38055 3.86077,25.38949 -6.11133,25.35547 -3.772,-0.0132 -4.40064,0.049 -9.0625,0.32227 -1.60422,0.094 -5.35069,2.96455 -4.60937,7.4414 6.02978,36.41503 9.07833,59.83101 12.67382,95.63282 2.79251,27.80593 -4.67106,35.98411 -15.26757,36.26757 -13.85794,0.37077 -15.6297,-19.10385 -17.51953,-33.9414 -3.44074,-27.01399 -15.75065,-95.09847 -16.11914,-97.41211 -0.26778,-1.68015 -2.92096,-4.31272 -6.02735,-4.48242 -0.36518,-0.02 -5.36964,-0.25726 -6.12891,3.30468 L 515.9668,905.94336 c -1.43014,6.65802 -5.59909,27.99996 -23.57422,26.85937 -17.10626,-1.08544 -11.38166,-25.23588 -6.99805,-44.47851 9.06694,-39.80085 13.73269,-84.7173 13.82227,-87.58789 0.0512,-1.6416 -2.32836,-3.74347 -4.80274,-3.85156 -4.32695,-0.18898 -6.96289,0.0508 -6.96289,0.0508 -9.83365,-1.42923 -12.70044,-3.19825 -10.42773,-11.64844 12.72181,-47.30135 16.05661,-67.02684 21.80078,-115.77149 0.44511,-3.77743 0.7187,-6.41905 -0.81836,-10.72265 l -25.76367,-72.13672 c -11.37691,-31.85431 -20.35698,-43.46089 -18.59375,-57.41797 1.70313,-13.4815 -9.5404,-9.58711 -10.60547,-17.46289 -1.24396,-9.19854 5.27615,-11.39062 11.95117,-11.39062 8.37566,0 10.9697,-4.9803 9.42774,-14.51563 -1.1212,-6.9335 -14.87919,-34.75164 -19.2168,-46.54297 -4.12498,-11.21318 -13.04022,-6.37223 -31.96485,-6.40625 -70.10218,-0.12083 -105.29785,-82.16405 -58.25585,-135.74609 37.99937,-43.28191 109.95361,-36.94766 134.65429,13.19531 8.14432,16.53318 2.55714,22.94908 28.18555,22.48438 16.36346,-0.29671 29.77004,10.58922 74.79101,58.39453 25.75348,27.3462 43.84368,44.08044 51.23243,47.61914 2.42403,1.16095 3.04238,-1.57838 3.25781,-3.33594 0.64823,-5.29293 -2.101,-7.69014 -15.07227,-19.25977 -60.4961,-53.95908 -25.26176,-149.91173 53.22852,-149.80859 z m -2.82422,19.14844 c -42.68761,-0.32353 -80.30116,45.00161 -55.35352,93.98828 17.46822,34.30035 30.61086,33.3061 39.75391,-3.00781 8.81855,-35.02377 24.48775,-42.20577 18.85156,-8.64063 -1.99793,11.89868 -5.70475,26.87623 -8.23828,33.28321 -3.74642,9.47375 -1.0551,11.60832 14.41016,11.4375 51.91691,-0.57797 74.8046,-68.16739 36.16797,-106.80665 -14.04768,-14.04875 -30.1516,-20.13688 -45.5918,-20.2539 z m -263.92383,1.73633 c -14.60569,0.19247 -29.79814,4.31802 -40.59961,13.4082 -25.59037,21.53605 -39.05312,60.16173 -13.58789,90.42773 9.64043,11.45787 24.10827,22.44884 32.27735,23.6875 32.51357,4.92994 37.89291,-0.93322 30.91601,-13.98828 -2.77285,-5.18853 -11.5685,-27.92969 -15.4082,-35.41992 -7.53978,-14.70801 -5.14118,-32.45898 32.3125,-32.45898 34.5453,0 42.16018,-2.67629 14.25,-32.65625 -7.80561,-8.38445 -23.60704,-13.21814 -40.16016,-13 z m 51.41602,64.375 c -4.9342,0.10125 -11.20979,1.10351 -18.61133,1.10351 -15.77628,2.72085 -26.29817,-4.84719 -15.76172,18.00586 3.39587,8.12806 7.09786,16.07776 8.97852,21.52735 1.18767,3.44151 3.01651,10.39151 6.53711,12.60937 6.06001,2.35929 17.96986,-7.96991 22.97656,-20.19336 10.28232,-25.10367 12.25816,-30.67536 0.35937,-32.7832 -1.33888,-0.23718 -2.83378,-0.30328 -4.47851,-0.26953 z m 35.98828,1.40429 c -4.57327,0.0689 -6.90114,8.80249 -9.0625,18.91797 -3.65171,17.0906 -9.85927,27.02248 -28.11719,46.66211 -5.87218,6.31654 -6.0333,9.17516 -3.13867,19.27149 6.35391,22.16212 9.05054,21.47396 13.19922,11.15234 9.07914,-22.58816 32.29039,-83.25952 34.01367,-87.83594 1.7235,-4.57642 -2.91216,-8.22795 -6.89453,-8.16797 z m 30.24414,15.83399 c -2.93531,0.13386 -4.71463,2.59351 -5.38477,3.2832 -4.51714,4.64901 -34.78711,78.81565 -34.78711,85.54688 0,0.31366 -0.91158,6.10248 1.90821,6.83593 9.71833,2.52794 37.15517,1.50977 67.25,1.50977 0,0 60.50339,3.97799 66.85742,1.75 3.89499,-1.36577 2.67349,-5.69953 0.28906,-8.99414 -11.08962,-15.3227 -44.85156,-46.33789 -44.85156,-46.33789 -18.34738,-20.3537 -37.44897,-37.86569 -48.18555,-42.91211 -0.90168,-0.42381 -1.73358,-0.62793 -2.49414,-0.67578 -0.20598,-0.013 -0.40587,-0.0148 -0.60156,-0.006 z m 1.79297,115.21484 c -59.4139,0.15594 -75.73733,8.02636 -41.73828,21.69336 8.68596,3.49153 10.06804,9.90503 4.26953,9.90234 -30.88003,-0.0143 -31.87375,10.84698 -26.02735,17.16211 4.86361,5.25358 36.77539,76.27735 36.7754,76.27735 2.00465,3.65794 8.58125,10.09896 13.0332,10.02148 0,0 6.36558,0.61524 15.79883,0.61524 9.14725,0 16.22656,1.78125 16.22656,1.78125 5.04676,0.34167 12.44452,-3.27251 14.53906,-8.23243 l 11.58789,-27.4414 c 11.02942,-22.46257 14.13136,-33.39264 21.92774,-44.39844 7.57258,-10.68986 1.33713,-11.61799 -9.6836,-10.64453 -14.8515,1.3118 -5.09202,-12.50391 12.17774,-13.67969 12.7384,-0.86729 20.16603,-7.42099 22.77734,-14.43164 2.26118,-6.07075 5.44785,-15.70514 -2.97656,-16.05664 -3.45169,-0.14404 -51.29297,-1.84961 -51.29297,-1.84961 -13.91223,-0.51233 -26.39196,-0.74763 -37.39453,-0.71875 z m -0.97852,69.45703 c 12.76505,-0.17591 26.84644,6.89227 32.20703,20.83789 4.85915,12.64112 0.48379,21.92756 -5.89843,29.13868 -13.3632,15.09871 -44.51499,9.27841 -50.02539,-20.9375 -3.52645,-19.33698 9.24974,-28.8397 23.71679,-29.03907 z m 84.48047,130.21485 c 1.94831,-0.0792 4.45294,1.78431 6.12695,3.77539 11.26817,13.40228 128.07226,188.73821 134.26172,199.20312 0,3.04679 -11.5187,13.42824 -31.73437,23.34375 -34.26278,16.80541 -49.77344,15.46094 -49.77344,15.46094 -4.3703,-11.22331 -37.93534,-117.6014 -42.99609,-131.4082 -4.00672,-10.93108 -17.77593,-93.08594 -18.67383,-102.4961 -0.55138,-5.77848 0.84075,-7.79972 2.78906,-7.8789 z m -157.42383,6.38086 c 3.19646,-0.0228 4.27041,5.60111 3.33203,11.20117 -0.68855,4.10918 -19.23493,80.97096 -22.15039,91.625 -3.26793,11.94202 -43.88867,123.27929 -43.88867,123.27929 0,0 -23.00728,-7.58924 -39.85547,-16.20898 -19.13711,-9.79083 -37.63281,-20.99292 -37.63281,-24.2793 0,-4.61147 131.59184,-178.43826 135.46094,-182.65625 1.90664,-2.07857 3.48358,-2.95199 4.73437,-2.96093 z M 256.26172,862.19141 c 0.29922,-0.0385 0.73,0.16126 1.29297,0.5957 l 28.37304,21.89453 c 0.8726,0.67339 1.39264,1.25436 1.55665,1.74024 0.21386,0.47941 -0.039,1.18242 -0.75586,2.11132 l -4.4961,5.82813 c -0.67339,0.87259 -1.22327,1.32383 -1.65039,1.35351 -0.40539,0.002 -1.01573,-0.31341 -1.83203,-0.94336 l -3.84375,-2.96484 c -0.98519,-0.76029 -1.67533,-1.00171 -2.07031,-0.72266 -0.34512,0.27261 -0.895,0.72385 -1.65039,1.35352 l -17.23438,14.38867 c -0.98547,0.81142 -1.3983,1.3453 -1.23828,1.60352 0.18175,0.23004 0.97749,0.30669 2.38672,0.22656 l 35.07031,-1.97266 c 0.67647,-0.0617 1.30747,-0.0925 1.89063,-0.0918 0.60487,-0.0272 0.88816,-0.18902 0.84961,-0.48828 -0.0103,-0.2775 -0.57907,-0.85182 -1.70508,-1.72071 l -2.44922,-1.88867 c -0.70371,-0.54307 -1.07807,-0.98881 -1.12305,-1.33789 0.005,-0.35553 0.26762,-0.87133 0.78907,-1.54687 l 4.79101,-6.20704 c 0.71684,-0.92888 1.33692,-1.32661 1.86133,-1.1914 0.57428,0.12875 1.2825,0.52016 2.12695,1.17187 l 27.40235,21.14649 c 0.8726,0.67338 1.30428,1.16308 1.29296,1.46875 0.0386,0.29921 -0.27973,0.88522 -0.95312,1.75781 l -4.62695,5.99414 c -0.60823,0.78816 -1.10746,1.23467 -1.5,1.33594 -0.3644,0.12296 -0.94036,-0.12034 -1.72852,-0.72852 l -6.03906,-4.66015 c -1.09779,-0.84717 -1.9464,-1.34557 -2.54883,-1.4961 -0.55256,-0.15697 -1.28479,-0.22681 -2.19531,-0.21094 l -32.28516,1.15625 c -1.84277,0.06 -2.68019,0.35685 -2.50976,0.89258 0.19215,0.50759 0.70154,1.50745 1.52734,2.99805 1.75533,3.19599 2.7323,6.14901 2.92969,8.86133 0.24725,2.70586 0.0379,5.21678 -0.62696,7.5332 -0.61493,2.30997 -1.3907,4.45057 -2.32812,6.42188 -0.90927,1.99302 -1.67113,3.85326 -2.28516,5.58007 -0.61402,1.72684 -0.79595,3.36082 -0.54687,4.90039 0.2708,1.51141 1.30593,2.96133 3.10742,4.35157 l 4.56055,3.51953 c 0.84445,0.65166 1.29234,1.1772 1.34375,1.57617 0.0731,0.37082 -0.23849,1.00744 -0.9336,1.9082 l -4.30078,5.57227 c -0.73856,0.95705 -1.33909,1.41497 -1.80078,1.37305 -0.43354,-0.0202 -1.09925,-0.37714 -2,-1.07227 l -15.11719,-11.66602 c -3.46225,-2.67184 -5.68689,-5.28803 -6.67578,-7.84765 -0.98889,-2.55962 -1.19218,-5.11842 -0.60937,-7.67774 0.61095,-2.53762 1.58458,-5.10898 2.92187,-7.71484 1.36544,-2.58414 2.69785,-5.23949 3.99414,-7.9668 1.31802,-2.75547 2.16371,-5.62831 2.53906,-8.61718 0.27534,-1.40435 0.19389,-2.14087 -0.24609,-2.21094 -0.41824,-0.0983 -1.26129,-0.14195 -2.52734,-0.13086 L 240.625,920.2539 c -0.75449,0.0466 -1.43419,0.0841 -2.03906,0.11132 -0.60488,0.0272 -1.26127,0.3533 -1.9668,0.97657 l -5.04883,4.18554 c -0.79884,0.68596 -1.20214,1.20698 -1.20703,1.5625 0.0169,0.32739 0.54645,0.89354 1.58789,1.69727 l 4.56055,3.51953 c 0.61926,0.47788 0.96259,0.87631 1.0293,1.19727 0.0948,0.34265 -0.10782,0.83892 -0.60743,1.48632 l -4.88671,6.33204 c -0.6734,0.87259 -1.24478,1.26364 -1.7129,1.17187 -0.44639,-0.11994 -1.07822,-0.49505 -1.89453,-1.125 L 198.25,918.07227 c -0.76001,-0.58651 -1.1114,-1.06188 -1.05664,-1.42383 0.0547,-0.36196 0.37442,-0.92163 0.96094,-1.68164 l 4.39843,-5.70118 c 0.71684,-0.92889 1.29302,-1.38346 1.72657,-1.36328 0.43354,0.0202 1.08638,0.36758 1.95898,1.04102 l 5.32031,4.10547 c 0.9852,0.76026 1.65286,1.11724 2.00196,1.07226 0.34909,-0.0448 0.91038,-0.39479 1.6875,-1.05273 l 39.95312,-33.4375 c 0.96375,-0.78327 1.4186,-1.37447 1.36719,-1.77344 -0.0514,-0.39897 -0.63969,-1.03345 -1.76563,-1.90234 l -4.0957,-3.16016 c -0.73186,-0.56479 -1.17307,-1.04162 -1.32422,-1.42773 -0.12301,-0.3644 0.12028,-0.94039 0.72852,-1.72852 l 5.01758,-6.50195 c 0.45617,-0.59112 0.83358,-0.90676 1.13281,-0.94531 z m 589.98047,20.58789 c 0.52545,-0.001 1.05415,0.0307 1.58398,0.0996 2.09734,0.24768 4.1327,1.3364 6.10742,3.26562 1.98063,1.87938 3.76401,4.88865 5.35157,9.02539 l 8.19531,20.97852 c 0.37122,0.92989 0.70929,1.59159 1.01758,1.98242 0.68263,0.86539 1.44378,0.96718 2.28125,0.30664 0.94914,-0.7487 1.54344,-2.14599 1.78515,-4.19336 0.24164,-2.04739 0.0249,-4.70677 -0.65234,-7.97656 -0.21115,-0.78441 -0.24083,-1.39634 -0.0879,-1.83399 0.15294,-0.43764 0.6369,-0.77266 1.44922,-1.00586 l 4.66992,-0.96679 c 1.11783,-0.24769 1.80069,-0.24212 2.04883,0.0156 0.24819,0.25714 0.50763,0.95774 0.77734,2.10352 1.25498,5.66707 1.23749,11.07024 -0.0527,16.20898 -1.29021,5.13877 -4.02941,9.35906 -8.2168,12.66211 -3.29406,2.59843 -6.32948,3.86167 -9.10547,3.78711 -2.77596,-0.0746 -5.00028,-1.17332 -6.67383,-3.29492 -0.50648,-0.64207 -0.96793,-1.34156 -1.38476,-2.09961 -0.38892,-0.78009 -0.71928,-1.51659 -0.99219,-2.20703 l -8.57422,-20.33984 c -1.45265,-3.56387 -2.87439,-6.20139 -4.26758,-7.91016 -1.4152,-1.73667 -3.03117,-1.88836 -4.8457,-0.45703 -1.39578,1.10102 -2.3657,2.88423 -2.91016,5.35156 -0.53855,2.41741 -0.70772,5.24563 -0.50781,8.48437 0.20586,3.18882 0.76078,6.53224 1.66406,10.03126 0.88134,3.47108 2.09286,6.8169 3.63672,10.0371 l 6.80664,14.39844 c 0.42114,0.93579 0.58881,1.66418 0.50196,2.18555 -0.059,0.49938 -0.59073,1.14671 -1.59571,1.93945 l -10.00781,7.89453 c -1.33997,1.05696 -2.21527,1.49721 -2.625,1.32227 -0.40973,-0.17487 -0.89548,-0.87823 -1.45898,-2.10938 L 812.73047,923.4707 c -0.52538,-1.12529 -0.97413,-1.72182 -1.3457,-1.79101 -0.36569,-0.11918 -1.14924,0.29524 -2.34961,1.24219 l -3.09766,2.44335 c -0.83749,0.66062 -1.45408,0.94279 -1.84766,0.84571 -0.3936,-0.097 -0.89905,-0.5366 -1.51562,-1.31836 l -3.10352,-3.93555 c -0.59457,-0.75374 -0.89758,-1.30861 -0.90625,-1.66406 0.0202,-0.37723 0.39311,-0.85368 1.11719,-1.42578 l 19.42969,-15.32617 c 0.86541,-0.68264 1.49896,-1.0003 1.89844,-0.95313 0.37747,0.0202 0.74642,0.42926 1.10742,1.23047 l 3.57031,7.71289 c 0.60165,1.33684 1.04465,1.98389 1.32812,1.94141 0.31141,-0.0645 0.42511,-1.03691 0.34376,-2.91993 -0.36304,-10.21994 2.51339,-17.74197 8.62695,-22.56445 1.70288,-1.34327 3.56457,-2.42733 5.58594,-3.25195 1.53698,-0.635 3.09355,-0.95327 4.66992,-0.95703 z m -61.07617,41.39648 c 0.32241,-0.008 0.64595,-0.004 0.97265,0.01 2.62776,0.062 5.17248,0.89835 7.63477,2.50976 2.46228,1.61149 4.59094,4.05487 6.38281,7.33008 2.13319,3.89904 3.06174,7.97027 2.78906,12.21289 -0.28976,4.21143 -1.5296,8.72043 -3.72265,13.52734 -2.21012,4.77572 -5.16224,9.93579 -8.85547,15.48243 -3.6791,5.49835 -7.88053,11.48509 -12.60547,17.96093 -0.60621,0.81802 -1.11655,1.48179 -1.52734,1.99024 -0.37962,0.49139 -1.09266,0.74102 -2.14258,0.74805 l -5.96485,0.10156 c -0.5732,-0.0101 -0.925,-0.1009 -1.05859,-0.27149 -0.15068,-0.20132 -0.33427,-0.64778 -0.55078,-1.33984 -0.33069,-1.19708 -0.68591,-2.58486 -1.0625,-4.16211 -0.36243,-1.6255 -0.90044,-3.09226 -1.61719,-4.40234 -1.22872,-2.24585 -2.64558,-4.16616 -4.24805,-5.76172 -1.61952,-1.62674 -3.2987,-3.14143 -5.03711,-4.54102 -1.73843,-1.39958 -3.39898,-2.88096 -4.98437,-4.44531 -1.58541,-1.56437 -2.98367,-3.45332 -4.19531,-5.66797 -1.5359,-2.80731 -1.89454,-5.57149 -1.07227,-8.29101 0.80524,-2.75069 2.2478,-5.52454 4.32422,-8.32227 2.10762,-2.81479 4.31318,-5.74417 6.61914,-8.78906 0.42495,-0.5567 0.72347,-0.86187 0.89648,-0.91602 0.15597,-0.0854 0.52097,0.0588 1.0918,0.43555 l 4.71094,3.50195 c 0.52258,0.36256 0.82679,0.62138 0.91211,0.77735 0.0995,0.10759 4.5e-4,0.44565 -0.29688,1.01367 -0.62563,1.15288 -1.09947,2.50705 -1.42382,4.0625 -0.29317,1.53837 -0.0301,3.05551 0.78906,4.55273 0.97275,1.77797 2.0875,3.11359 3.3457,4.00586 1.27234,0.84399 2.64745,1.69269 4.12695,2.54492 1.49362,0.80401 3.07247,1.94576 4.73438,3.42774 1.64482,1.45076 3.33257,3.64853 5.06445,6.59179 0.57436,0.90165 0.99941,1.64219 1.27539,2.22071 0.26717,0.34018 0.49254,0.3785 0.67383,0.11718 0.18117,-0.26128 0.46652,-0.7012 0.85742,-1.32031 2.61619,-4.55206 4.84428,-8.8505 6.6836,-12.89648 1.87051,-4.06304 3.10368,-7.69593 3.70117,-10.90039 0.61163,-3.25271 0.35484,-5.91004 -0.77149,-7.96875 -0.63143,-1.15412 -1.14321,-1.86678 -1.53515,-2.13867 -0.409,-0.30312 -0.80146,-0.35134 -1.17578,-0.14649 -0.59266,0.32423 -0.98197,0.98315 -1.16797,1.97656 -0.17184,0.94516 -0.5216,2.00833 -1.05078,3.18946 -0.51503,1.13287 -1.61445,2.15854 -3.29883,3.08007 -2.52657,1.3823 -4.80712,1.69754 -6.83984,0.94532 -2.04977,-0.78342 -3.71422,-2.34417 -4.99415,-4.6836 -1.33109,-2.43298 -1.46882,-5.09324 -0.41406,-7.98046 1.05477,-2.88724 3.5777,-5.42304 7.57031,-7.60743 2.047,-1.11993 4.20013,-1.70804 6.45704,-1.76367 z M 390.2793,940.81055 c 0.25854,0.0125 0.57489,0.0815 0.94531,0.20703 l 25.05273,8.49023 c 1.14492,0.38801 1.76112,0.7287 1.84961,1.02149 0.12221,0.3042 -0.0931,0.88896 -0.64843,1.75195 l -15.32227,25.10352 c -0.66883,1.08729 -0.98229,1.84402 -0.93945,2.27148 0.0428,0.42749 0.78013,0.35929 2.21093,-0.20703 2.64814,-1.16735 5.28911,-1.92488 7.92188,-2.27149 2.67787,-0.3689 5.21068,-0.14817 7.60156,0.66211 5.62359,1.90587 9.58818,5.1632 11.89258,9.77344 2.31579,4.57658 2.27558,10.40113 -0.12109,17.47262 -1.62054,4.7818 -4.06426,9.0038 -7.33204,12.6641 -3.26776,3.6604 -7.12792,6.5739 -11.58007,8.7441 -4.40708,2.148 -9.18647,3.4013 -14.33789,3.7579 -5.10637,0.3342 -10.35432,-0.4124 -15.74219,-2.2383 -6.06136,-2.0543 -10.43789,-4.7565 -13.13086,-8.1094 -2.68156,-3.3866 -4.38347,-6.8935 -5.10742,-10.5176 -0.29688,-1.3395 -0.37076,-2.3968 -0.22071,-3.1719 0.16147,-0.8087 0.63363,-1.868 1.41602,-3.1796 l 29.38281,-47.8184 c 0.61176,-0.91893 0.86214,-1.60437 0.75196,-2.05469 -0.0766,-0.43888 -0.80499,-0.89147 -2.18555,-1.35938 l -4.5957,-1.55859 c -0.77451,-0.2625 -1.20027,-0.55636 -1.27735,-0.88281 -0.0658,-0.36014 0.0324,-0.92863 0.29492,-1.70313 l 1.7793,-5.25195 c 0.27389,-0.80819 0.55206,-1.29563 0.83399,-1.46289 0.14666,-0.10041 0.34887,-0.14535 0.60742,-0.13281 z m -61.82618,3.69531 c 1.2403,-0.008 2.4939,0.0438 3.76172,0.1543 5.10306,0.45813 10.18039,1.95897 15.23047,4.5 2.90699,1.46269 5.40265,3.11099 7.4961,4.94336 l 7.55078,-3.88086 c 0.65282,-0.34817 1.21063,-0.54526 1.67187,-0.5918 0.46125,-0.0466 1.24773,0.21011 2.35938,0.76953 l 4.52539,2.27734 c 1.2387,0.62327 1.76188,1.08509 1.57031,1.38672 -0.15982,0.31763 -0.56594,0.65183 -1.21875,1 l -11.03711,5.74024 c 0.3021,0.56314 0.58339,1.13611 0.83399,1.72265 2.35548,5.44409 1.86352,11.48489 -1.47657,18.12305 -2.28532,4.54191 -5.2778,8.35036 -8.97461,11.42578 -3.66503,3.09143 -7.8125,5.36328 -12.44336,6.81445 -4.61486,1.41938 -9.47312,1.89958 -14.57617,1.44138 -5.07129,-0.44209 -10.13156,-1.93355 -15.18164,-4.47458 -2.6634,-1.34013 -4.9849,-2.83633 -6.97265,-4.48437 l -8.36329,4.34961 c -0.63683,0.31642 -1.18739,0.45876 -1.64843,0.42578 -0.47703,-0.001 -1.2541,-0.27306 -2.33399,-0.81641 l -3.57422,-1.79883 c -1.52455,-0.76709 -2.38054,-1.35757 -2.57031,-1.77148 -0.20576,-0.38214 0.12069,-0.79327 0.98047,-1.23633 l 11.66602,-5.99414 c -0.37172,-0.65641 -0.70675,-1.32897 -1.00782,-2.01758 -2.33949,-5.47585 -1.84008,-11.53371 1.5,-18.17187 2.28532,-4.54189 5.27781,-8.35033 8.97461,-11.42578 3.6968,-3.07546 7.85193,-5.32278 12.4668,-6.74219 3.47314,-1.08837 7.07014,-1.64458 10.79101,-1.66797 z m 9.23047,11.89648 c -0.85341,-0.01 -1.74691,0.0867 -2.68359,0.28711 -2.4978,0.5343 -5.0765,1.66414 -7.73633,3.39063 -2.65983,1.72649 -5.20323,3.9302 -7.62695,6.61133 -2.26707,2.54319 -4.20625,5.39993 -5.83789,8.55273 l 30.24805,-15.54297 c -0.48083,-1.00549 -1.29478,-1.79707 -2.44336,-2.375 -1.19106,-0.59929 -2.49758,-0.90781 -3.91993,-0.92383 z M 725,957.33203 c 0.12755,0.0133 0.22769,0.0479 0.29883,0.10547 0.27122,0.19729 0.46955,0.788 0.59765,1.77148 l 5.14844,39.73047 c 0.1275,0.79197 0.30516,1.46865 0.53125,2.02935 0.4121,1.0221 1.11226,1.3343 2.10156,0.9355 1.1542,-0.4653 2.11233,-1.6574 2.87305,-3.57422 0.78042,-1.96306 1.26834,-4.45916 1.46484,-7.49024 0.0761,-1.14245 0.25889,-1.83063 0.54883,-2.0625 0.32288,-0.24516 0.96882,-0.35275 1.93946,-0.32226 l 4.15039,0.16797 c 1.1754,0.0627 1.89192,0.27099 2.15039,0.62695 0.24516,0.32287 0.31367,1.15866 0.20508,2.50586 -0.45949,5.8973 -2.0323,11.07394 -4.72071,15.53124 -2.70173,4.4244 -6.49249,7.6204 -11.37304,9.5879 -2.50623,1.0103 -4.82426,1.3505 -6.95118,1.0195 -2.08063,-0.3113 -3.88078,-1.023 -5.40234,-2.1347 -0.38397,-0.3819 -0.71118,-0.6718 -0.98242,-0.8692 -0.27122,-0.1973 -0.51293,-0.3689 -0.72461,-0.5136 -0.54886,-0.3155 -0.97754,-0.3326 -1.28711,-0.055 -0.30957,0.2781 -0.71873,0.8821 -1.22461,1.8144 -1.22777,2.5651 -2.83594,4.9009 -4.82422,7.0059 -1.98828,2.1049 -4.44984,3.7485 -7.38476,4.9316 -3.19877,1.2895 -6.42469,1.9385 -9.67969,1.9473 -3.25503,0.01 -6.3186,-0.9799 -9.18946,-2.9649 -2.85113,-2.0325 -5.25281,-5.4727 -7.20703,-10.3203 -2.14029,-5.3093 -3.22185,-10.5091 -3.24218,-15.5996 -0.0335,-5.12344 0.70728,-9.849 2.2207,-14.17772 1.54648,-4.34202 3.64954,-8.06617 6.30859,-11.16992 2.65908,-3.10375 5.60422,-5.30657 8.83594,-6.60937 3.42957,-1.38258 6.45267,-1.87302 9.06836,-1.47071 2.64867,0.38902 5.06097,1.52575 7.23828,3.40821 0.83389,0.73723 1.4067,1.06128 1.7168,0.97461 0.31007,-0.0867 0.34013,-0.8662 0.0918,-2.33789 l -0.6836,-3.97852 c -0.0809,-0.58079 -0.0361,-1.03974 0.13477,-1.37695 0.20384,-0.35047 0.75034,-0.7055 1.64062,-1.06446 l 13.70117,-5.52343 c 0.89037,-0.35894 1.52751,-0.51838 1.91016,-0.47852 z m -113.20312,9.71289 c 0.47888,-0.0224 0.80884,0.0357 0.98828,0.17578 0.38528,0.23736 0.57386,1.03277 0.5664,2.38672 l 0.23633,31.24418 c 0.003,1.8628 0.19747,2.9129 0.58399,3.1504 0.38524,0.2373 1.13792,-0.598 2.25585,-2.5079 2.08577,-3.52831 4.36433,-6.31811 6.83789,-8.36715 2.49994,-2.09186 5.41143,-3.5318 8.73243,-4.32031 2.11023,-0.50101 4.25488,-0.69919 6.43554,-0.5957 2.21526,0.0952 4.22512,0.71286 6.03125,1.85547 1.7979,1.10798 3.18763,2.95358 4.16602,5.53515 1.00475,2.53879 1.35527,6.01894 1.05273,10.43944 l -1.40625,22.4785 c -0.0549,0.9998 -0.0231,1.7423 0.0918,2.2266 0.25461,1.0724 0.89969,1.4847 1.9375,1.2383 2.45616,-0.5832 4.3855,-3.6902 5.78906,-9.3223 0.31532,-1.1346 0.53339,-1.99 0.65235,-2.5664 0.11893,-0.5764 0.88349,-0.7398 2.29492,-0.4902 l 3.92383,0.8222 c 1.37678,0.2578 2.16132,0.5641 2.35547,0.92 0.22047,0.313 0.16689,1.1673 -0.16016,2.5605 -1.26521,5.5993 -3.56927,10.4388 -6.91211,14.5215 -3.35106,4.048 -7.58713,6.6809 -12.70703,7.8965 -4.08207,0.9692 -7.36722,0.8345 -9.85352,-0.4024 -2.48632,-1.2369 -4.03983,-3.1697 -4.66406,-5.7988 -0.18898,-0.7957 -0.31434,-1.6252 -0.37305,-2.4883 -0.0252,-0.8713 -0.014,-1.6769 0.0312,-2.4179 l 0.79102,-22.0606 c 0.18368,-3.8442 0.005,-6.8341 -0.53906,-8.9707 -0.55207,-2.1712 -1.95259,-2.9889 -4.20117,-2.4551 -1.6951,0.4025 -3.31204,1.5165 -4.85157,3.3438 -1.53953,1.8272 -2.92257,4.165 -4.14648,7.0136 -1.23215,2.8141 -2.19507,5.912 -2.89063,9.293 -0.69556,3.381 -1.04207,6.8442 -1.04101,10.3887 l 0.13086,17.1816 c 0.0101,1.2765 -0.13389,2.1321 -0.43164,2.5684 -0.272,0.3935 -1.15113,0.7659 -2.63868,1.1191 l -11.36328,2.6992 c -1.79888,0.4271 -2.91723,0.4917 -3.35351,0.1934 -0.43631,-0.2984 -0.66251,-1.1771 -0.67969,-2.6348 l -0.44141,-69.73043 c 0.0202,-0.99152 -0.11856,-1.58096 -0.41796,-1.76563 -0.29967,-0.18469 -1.05485,-0.1332 -2.26563,0.1543 l -4.25586,1.01172 c -0.96862,0.23005 -1.61886,0.25644 -1.95312,0.0801 -0.30786,-0.21922 -0.58213,-0.83072 -0.82032,-1.83399 l -1.03515,-4.35937 c -0.32036,-1.34917 -0.33889,-2.20167 -0.0586,-2.56055 0.31484,-0.36712 1.11068,-0.70391 2.39063,-1.00781 l 23.29883,-5.53125 c 0.77835,-0.18481 1.40782,-0.28819 1.88672,-0.31055 z m -269.97266,3.39844 -29.5918,15.38672 c 0.49295,0.76417 1.20801,1.38618 2.15235,1.86133 1.90569,0.95889 4.10766,1.17104 6.60546,0.63671 2.49781,-0.53431 5.07651,-1.66416 7.73633,-3.39062 2.65983,-1.72649 5.17675,-3.92254 7.55274,-6.58789 2.146,-2.37393 3.98351,-5.01977 5.54492,-7.90625 z M 701.75,975.98828 c -0.50295,0.0302 -1.01925,0.15254 -1.54688,0.36524 -1.6818,0.67799 -3.08694,2.08625 -4.21679,4.22851 -1.1102,2.096 -1.87594,4.668 -2.29688,7.71289 -0.40128,2.99863 -0.41381,6.20275 -0.0351,9.61524 0.39861,3.36624 1.24368,6.64884 2.5332,9.84764 1.38255,3.4296 2.87041,5.744 4.46484,6.9414 1.62742,1.1841 3.41375,1.384 5.35938,0.5996 1.31908,-0.5317 2.53383,-1.7497 3.64453,-3.6543 1.0974,-1.9375 1.93423,-4.2874 2.50781,-7.0488 0.56028,-2.7944 0.72346,-5.81151 0.49024,-9.05273 -0.23333,-3.2412 -0.98756,-6.44555 -2.26368,-9.61133 -1.2496,-3.09982 -2.73163,-5.68339 -4.44726,-7.75195 -1.28672,-1.55142 -2.68452,-2.28213 -4.19336,-2.19141 z m -295.48047,9.35352 c -1.89251,0.0801 -3.99399,0.68915 -6.30469,1.83008 -3.6971,1.82545 -7.04678,5.17671 -10.05078,10.05273 l -6.76758,10.99609 c -0.73673,1.1769 -1.12475,2.3227 -1.16406,3.4355 -0.16244,3.2487 1.20361,5.3623 4.09961,6.3438 2.45821,0.8331 5.28291,0.4766 8.47266,-1.0703 3.22341,-1.5355 6.30534,-4.0389 9.24609,-7.5098 2.95217,-3.5045 5.27189,-7.7486 6.96094,-12.7324 0.93581,-2.7613 1.34811,-5.13625 1.23437,-7.12695 -0.0801,-1.97932 -0.92864,-3.24321 -2.54492,-3.79102 -0.98496,-0.33381 -2.04613,-0.47581 -3.18164,-0.42773 z m 69.41797,7.41015 c 2.68114,-0.004 5.39114,0.2604 8.13086,0.79297 7.0151,1.36504 12.13035,3.64589 15.34766,6.84378 3.25901,3.1697 4.47204,6.9005 3.63671,11.1933 -0.60442,3.1062 -1.9832,5.6267 -4.13476,7.5625 -2.15159,1.9358 -4.81401,3.428 -7.98828,4.4766 -3.16747,1.0137 -6.5942,1.6885 -10.28125,2.0215 -3.68025,0.2981 -7.39354,0.3902 -11.13867,0.2773 -3.70346,-0.1411 -7.14929,-0.3948 -10.33789,-0.7617 -0.81631,-0.086 -1.38113,0.021 -1.69336,0.3223 -0.31222,0.3014 -0.54992,0.8713 -0.7129,1.709 -0.75382,3.8739 -0.59943,6.7112 0.4629,8.5117 1.09722,1.8073 2.86748,2.9484 5.31054,3.4238 2.58268,0.5026 5.32275,0.2927 8.21875,-0.6289 2.93093,-0.9148 5.62504,-2.4734 8.08203,-4.6758 0.52747,-0.4769 1.00606,-0.7991 1.4375,-0.9687 0.43825,-0.2046 1.16366,-0.2086 2.17578,-0.012 l 6.33399,1.2325 c 1.39606,0.2716 2.19589,0.6262 2.40039,1.0644 0.2046,0.4383 -0.11929,1.0815 -0.97266,1.9297 -2.52492,2.5514 -5.4418,4.8811 -8.75,6.9902 -3.30141,2.0743 -7.01629,3.5787 -11.14648,4.5137 -4.13017,0.935 -8.6908,0.9189 -13.68164,-0.053 -4.32771,-0.8421 -8.17124,-2.3157 -11.5293,-4.418 -3.35125,-2.1372 -5.82364,-4.9719 -7.41797,-8.5058 -1.59412,-3.5336 -1.89832,-7.8309 -0.91406,-12.8907 0.94414,-4.8505 2.89347,-9.29 5.84961,-13.3144 2.95655,-4.025 6.62231,-7.4053 10.99414,-10.14065 4.37183,-2.73532 9.1579,-4.62947 14.36133,-5.68164 2.62256,-0.54014 5.27589,-0.81068 7.95703,-0.81446 z m 82.75586,7.25585 c 2.16859,0.036 4.29742,0.3742 6.38476,1.0137 2.12292,0.6401 3.91723,1.7373 5.38477,3.291 1.46812,1.5181 2.35637,3.6492 2.66602,6.3926 0.34582,2.7084 -0.17432,6.1665 -1.56055,10.375 l -6.91992,21.4336 c -0.30047,0.9551 -0.45455,1.6819 -0.46289,2.1797 -0.0176,1.102 0.50656,1.6618 1.57226,1.6796 1.20872,0.02 2.55511,-0.686 4.03711,-2.1191 1.48198,-1.4332 2.99398,-3.6306 4.53711,-6.5918 0.33245,-0.7412 0.69656,-1.2323 1.0918,-1.4746 0.39521,-0.2424 0.98107,-0.1983 1.75781,0.1348 l 4.23047,2.205 c 1.02264,0.515 1.54852,0.9506 1.57812,1.3067 0.0295,0.3561 -0.21306,1.0629 -0.72851,2.1211 -2.6116,5.1837 -6.04187,9.3586 -10.29102,12.5234 -4.24914,3.1649 -9.04046,4.7026 -14.37304,4.6133 -4.19495,-0.07 -7.34399,-1.013 -9.44727,-2.8262 -2.10326,-1.8132 -3.13314,-4.0696 -3.08789,-6.7715 0.0126,-0.8176 0.0984,-1.653 0.25586,-2.5039 0.192,-0.8502 0.39976,-1.6285 0.625,-2.3359 l 6.22266,-21.1797 c 1.12844,-3.6794 1.69395,-6.6214 1.69531,-8.8262 0.002,-2.2402 -1.15407,-3.3792 -3.46485,-3.4179 -1.77753,-0.03 -3.65661,0.7396 -5.63867,2.3066 -1.94593,1.5321 -3.86454,3.6147 -5.75781,6.25 -1.85713,2.6004 -3.5437,5.5424 -5.05664,8.8242 -1.51234,3.2463 -2.68883,6.6053 -3.5293,10.0762 l -3.83203,15.457 c -0.2655,0.9913 -0.59711,1.6608 -0.99414,2.0098 -0.36145,0.3496 -1.18111,0.5136 -2.46094,0.4922 l -12.74609,-0.2129 c -1.70643,-0.029 -2.6624,-0.24 -2.86914,-0.6348 -0.20687,-0.3946 -0.13905,-1.2466 0.20312,-2.5566 l 9.89258,-39.6797 c 0.30466,-1.204 0.33408,-1.9517 0.0898,-2.2402 -0.20788,-0.3236 -1.07478,-0.4979 -2.60352,-0.5235 l -3.94727,-0.066 c -1.06653,-0.018 -1.72136,-0.1874 -1.96484,-0.5117 -0.2434,-0.3241 -0.35647,-0.985 -0.33984,-1.9805 l 0.084,-5.0117 c 0.0151,-0.9599 0.1326,-1.5805 0.35156,-1.8613 0.25361,-0.2802 0.84131,-0.412 1.76563,-0.3965 l 24.74414,0.4141 c 1.10208,0.018 1.79263,0.1709 2.07227,0.4609 0.28022,0.2536 0.30762,0.8066 0.0801,1.6563 l -2.11328,8.2324 c -0.37931,1.416 -0.44574,2.1974 -0.19922,2.3437 0.28203,0.1469 0.98758,-0.5347 2.11524,-2.0449 6.18172,-8.1465 13.16562,-12.15575 20.95117,-12.0254 z m -79.91992,1.9512 c -2.48657,0.039 -5.16995,0.8258 -8.04883,2.3574 -3.83851,2.0422 -7.11678,5.586 -9.83789,10.6348 -0.46937,0.9229 -0.66638,1.5552 -0.58789,1.8965 0.0784,0.3412 0.58184,0.5492 1.50976,0.6211 3.50179,0.2465 6.92174,0.1684 10.25977,-0.2325 3.34483,-0.4358 6.18875,-1.3671 8.53125,-2.7949 2.34247,-1.4277 3.79271,-3.5717 4.34961,-6.4336 0.29881,-1.5356 0.1846,-2.808 -0.34375,-3.8164 -0.52823,-1.0083 -1.6651,-1.6819 -3.41016,-2.0215 -0.78526,-0.1528 -1.59302,-0.224 -2.42187,-0.2109 z"
       transform="scale(0.26458333)" />
  </g>
  <g
     id="layer2"
     style="display:inline">
    <g
       id="g2017"
       style="fill:#ffffff;fill-opacity:1">
      <g
         id="g2025"
         style="fill:#ffffff;fill-opacity:1">
        <g
           aria-label="Bilfri By"
           transform="translate(-0.52916667)"
           id="text1957"
           style="font-style:italic;font-variant:normal;font-weight:800;font-stretch:normal;font-size:42.3333px;line-height:1.25;font-family:'Besley*';-inkscape-font-specification:'Besley*, Ultra-Bold Italic';font-variant-ligatures:normal;font-variant-caps:normal;font-variant-numeric:normal;font-variant-east-asian:normal;letter-spacing:0px;white-space:pre;display:inline;fill:#ffffff;fill-opacity:1;stroke:none;stroke-width:1;stroke-miterlimit:4;stroke-dasharray:none" />
        <g
           aria-label="København"
           transform="translate(1.0583333)"
           id="text1990"
           style="font-style:normal;font-weight:normal;font-size:10.5833px;line-height:1.25;font-family:sans-serif;white-space:pre;fill:#ffffff;fill-opacity:1;stroke:none" />
      </g>
    </g>
  </g>
</svg>
