<?xml version="1.0" encoding="UTF-8" standalone="no"?>
<svg
   width="844.82422"
   height="844.54102"
   viewBox="0 0 223.5264 223.45149"
   version="1.1"
   id="svg8"
   sodipodi:docname="bilfri-by-logo-no-text-white-background.svg"
   inkscape:version="1.1.2 (0a00cf5339, 2022-02-04)"
   inkscape:export-filename="/home/lukas/Webpages/bilfri.by/static/img/favicon.png"
   inkscape:export-xdpi="96"
   inkscape:export-ydpi="96"
   xmlns:inkscape="http://www.inkscape.org/namespaces/inkscape"
   xmlns:sodipodi="http://sodipodi.sourceforge.net/DTD/sodipodi-0.dtd"
   xmlns="http://www.w3.org/2000/svg"
   xmlns:svg="http://www.w3.org/2000/svg"
   xmlns:rdf="http://www.w3.org/1999/02/22-rdf-syntax-ns#"
   xmlns:cc="http://creativecommons.org/ns#"
   xmlns:dc="http://purl.org/dc/elements/1.1/">
  <sodipodi:namedview
     id="namedview911"
     pagecolor="#ffffff"
     bordercolor="#666666"
     borderopacity="1.0"
     inkscape:pageshadow="2"
     inkscape:pageopacity="0.0"
     inkscape:pagecheckerboard="0"
     showgrid="false"
     inkscape:zoom="0.43299515"
     inkscape:cx="391.45935"
     inkscape:cy="369.51915"
     inkscape:window-width="1366"
     inkscape:window-height="731"
     inkscape:window-x="0"
     inkscape:window-y="0"
     inkscape:window-maximized="1"
     inkscape:current-layer="layer1"
     inkscape:snap-page="true"
     fit-margin-top="0"
     fit-margin-left="0"
     fit-margin-right="0"
     fit-margin-bottom="0" />
  <defs
     id="defs2">
    <rect
       x="76.648689"
       y="307.32388"
       width="153.01314"
       height="38.228271"
       id="rect1992" />
    <rect
       x="-246.51315"
       y="112.34692"
       width="172.64262"
       height="49.670532"
       id="rect1971" />
    <rect
       x="-107.78077"
       y="44.235577"
       width="467.51947"
       height="169.5289"
       id="rect1959" />
    <clipPath
       clipPathUnits="userSpaceOnUse"
       id="clipPath1046">
      <rect
         style="fill:#ffffff;stroke-width:1.7"
         id="rect1048"
         width="54.870834"
         height="68.136383"
         x="7.1919003"
         y="77.167549" />
    </clipPath>
  </defs>
  <metadata
     id="metadata5">
    <rdf:RDF>
      <cc:Work
         rdf:about="">
        <dc:format>image/svg+xml</dc:format>
        <dc:type
           rdf:resource="http://purl.org/dc/dcmitype/StillImage" />
      </cc:Work>
    </rdf:RDF>
  </metadata>
  <g
     id="layer3"
     style="display:none"
     transform="translate(-31.111796,-31.111796)">
    <ellipse
       style="fill:none;stroke:#ff0000;stroke-width:1.2882;stroke-opacity:1"
       id="path1132"
       cx="-197.06158"
       cy="-57.841015"
       rx="97.630379"
       ry="97.302155"
       transform="rotate(-151.95998)" />
    <path
       style="fill:none;stroke:#ff0000;stroke-width:1.02269;stroke-linecap:butt;stroke-linejoin:miter;stroke-miterlimit:4;stroke-dasharray:none;stroke-opacity:1"
       d="m 52.516748,242.8415 c 26.723027,26.36211 72.700282,40.32048 104.590272,36.1075 25.57412,-3.74485 61.75521,-20.80392 77.03748,-36.82429"
       id="path1985" />
    <rect
       style="fill:#2effff;fill-opacity:1;stroke-width:3"
       id="rect994"
       width="77.727119"
       height="50.060429"
       x="-149.32657"
       y="-67.53875" />
  </g>
  <g
     id="layer4"
     style="display:inline"
     transform="translate(-31.111796,-31.111796)">
    <circle
       style="fill:#ffffff;fill-opacity:1;stroke-width:2.98633"
       id="path950"
       cx="142.875"
       cy="142.875"
       r="142.22412" />
  </g>
  <g
     id="layer1"
     style="display:inline"
     transform="translate(-31.111796,-31.111796)">
    <path
       id="path109"
       style="display:inline;fill:#f05a28;fill-opacity:1;stroke:none;stroke-width:0;stroke-miterlimit:4;stroke-dasharray:none"
       d="M 540,117.58789 A 422.41183,422.41183 0 0 0 117.58789,540 422.41183,422.41183 0 0 0 119.5,578.04102 c 0.16185,0.43799 0.2653,0.87239 0.42969,1.31054 100.99112,0.10261 196.35899,0.28186 304.31836,0.12891 4.42707,-0.006 9.99031,0.61591 12.80273,3.61523 3.08969,3.29503 6.27523,10.16839 7.24219,12.79883 1.78738,4.86225 1.49416,6.54932 -11.45703,10.60547 -7.26684,2.27587 -173.35884,46.17768 -289.55664,76.93945 10.11094,27.93929 23.14346,54.73298 38.88086,79.93555 106.93094,-52.70295 258.04937,-127.07562 268.1289,-130.99023 8.36243,-3.24775 9.98057,-2.72618 11.90235,-0.60938 2.67628,2.94792 5.53999,9.70416 5.78906,13.02734 0.19336,2.57908 -1.60819,4.53624 -5.08789,7.79102 -14.13135,13.21786 -131.72922,114.33867 -218.23047,188.63086 20.13684,19.76959 42.04852,37.32103 65.35547,52.5 50.27349,-66.10641 96.62801,-136.32739 149.28125,-200.53516 1.90664,-2.07857 3.48358,-2.95199 4.73437,-2.96093 3.19646,-0.0228 4.27041,5.60111 3.33203,11.20117 -0.68855,4.10918 -19.23493,80.97096 -22.15039,91.625 -15.27587,48.26289 -35.65463,94.79411 -49.71289,143.42969 45.87836,16.76646 94.73742,25.59823 144.49805,25.64453 49.10314,-0.0462 97.30785,-8.64678 142.625,-24.9668 -13.25145,-47.57577 -28.7265,-96.33432 -45.2832,-142.93945 -4.00672,-10.93108 -17.77593,-93.08594 -18.67383,-102.4961 -0.55138,-5.77848 0.84075,-7.79972 2.78906,-7.8789 1.94831,-0.0792 4.45294,1.78431 6.12695,3.77539 46.01755,69.0987 96.92714,136.71683 139.5,207.9707 26.45021,-16.91993 51.13394,-36.87013 73.50586,-59.62109 -84.89524,-69.33185 -196.90042,-161.2843 -219.65039,-183.98828 -1.9378,-1.93384 -3.20233,-3.73897 -2.69531,-6.22461 0.80769,-3.9597 3.49735,-13.15648 7.99219,-15.87891 1.53396,-0.9292 3.83665,-0.87784 6.28711,0.082 17.63815,6.90985 72.45392,34.56026 181.52148,89.125 31.91633,15.96723 58.02279,28.67388 85.23047,42.00195 15.49001,-25.18348 28.29139,-51.92465 38.19336,-79.7832 C 806.11416,648.50756 644.77491,606.8419 640.53711,604.832 c -2.93008,-1.38969 -4.85347,-3.02 -4.63086,-7.79101 0.19472,-4.17574 4.25025,-12.1976 6.98633,-16.13477 1.6337,-2.35087 3.84376,-2.80559 6.38281,-2.80469 2.40442,7.2e-4 179.46693,0.47838 310.83789,0.85938 0.14846,-0.31432 0.24173,-0.61573 0.38867,-0.92969 A 422.41183,422.41183 0 0 0 962.41211,540 422.41183,422.41183 0 0 0 540,117.58789 Z m 145.26172,148.875 c 98.60341,0.1294 108.0619,151.28122 10.28711,164.39649 0,-10e-6 -17.39664,-0.45605 -24.38672,5.54882 -8.60039,7.38819 -23.877,76.18343 -34.0293,85.56641 -4.37979,4.04787 -8.5931,13.50007 -8.85351,22.45312 -0.41205,14.16038 -36.96604,97.62774 -40.16016,108.51172 -0.93694,3.19268 -1.38462,10.32404 -0.46094,14.67578 8.94452,42.14049 17.3409,94.76269 18.0293,104.74219 1.54382,22.38055 3.86077,25.38949 -6.11133,25.35547 -3.772,-0.0132 -4.40064,0.049 -9.0625,0.32227 -1.60422,0.094 -5.35069,2.96455 -4.60937,7.4414 6.02978,36.41503 9.07835,59.83101 12.67382,95.63282 2.79251,27.80591 -4.67106,35.98411 -15.26757,36.26757 -13.85794,0.37077 -15.6297,-19.10385 -17.51953,-33.9414 -3.44074,-27.01399 -15.75067,-95.09847 -16.11914,-97.41211 -0.26778,-1.68015 -2.92096,-4.31272 -6.02735,-4.48242 -0.36518,-0.02 -5.36964,-0.25726 -6.12891,3.30468 L 515.9668,905.94336 c -1.43014,6.65802 -5.59909,27.99996 -23.57422,26.85937 -17.10626,-1.08544 -11.38166,-25.23588 -6.99805,-44.47851 9.06694,-39.80085 13.73269,-84.7173 13.82227,-87.58789 0.0512,-1.6416 -2.32836,-3.74347 -4.80274,-3.85156 -4.32695,-0.18898 -6.96289,0.0508 -6.96289,0.0508 -9.83365,-1.42923 -12.70044,-3.19825 -10.42773,-11.64844 12.72181,-47.30135 16.05661,-67.02684 21.80078,-115.77149 0.44511,-3.77741 0.7187,-6.41905 -0.81836,-10.72265 l -25.76367,-72.13672 c -11.37691,-31.85431 -20.35698,-43.46089 -18.59375,-57.41797 1.70313,-13.4815 -9.5404,-9.58711 -10.60547,-17.46289 -1.24396,-9.19854 5.27615,-11.39062 11.95117,-11.39062 8.37566,0 10.96968,-4.9803 9.42774,-14.51563 -1.1212,-6.9335 -14.87919,-34.75164 -19.2168,-46.54297 -4.12498,-11.21318 -13.04022,-6.37223 -31.96485,-6.40625 -70.10216,-0.12083 -105.29785,-82.16405 -58.25585,-135.74609 37.99935,-43.28191 109.95361,-36.94766 134.65429,13.19531 8.14432,16.53318 2.55714,22.94908 28.18555,22.48438 16.36346,-0.29671 29.77004,10.58922 74.79101,58.39453 25.75348,27.3462 43.84368,44.08044 51.23243,47.61914 2.42403,1.16095 3.04238,-1.57838 3.25781,-3.33594 0.64823,-5.29293 -2.101,-7.69014 -15.07227,-19.25977 -60.4961,-53.95906 -25.26176,-149.91173 53.22852,-149.80859 z m -2.82422,19.14844 c -42.68761,-0.32353 -80.30116,45.00161 -55.35352,93.98828 17.46822,34.30035 30.61086,33.3061 39.75391,-3.00781 8.81855,-35.02377 24.48775,-42.20577 18.85156,-8.64063 -1.99793,11.89868 -5.70475,26.87623 -8.23828,33.28321 -3.74642,9.47373 -1.0551,11.6083 14.41016,11.4375 51.91691,-0.57797 74.8046,-68.16739 36.16797,-106.80665 -14.04768,-14.04875 -30.1516,-20.13688 -45.5918,-20.2539 z m -263.92383,1.73633 c -14.60569,0.19247 -29.79814,4.31802 -40.59961,13.4082 -25.59037,21.53605 -39.05312,60.16173 -13.58789,90.42773 9.64043,11.45787 24.10827,22.44884 32.27735,23.6875 32.51357,4.92994 37.89291,-0.93322 30.91601,-13.98828 -2.77285,-5.18853 -11.5685,-27.92969 -15.4082,-35.41992 -7.53978,-14.70801 -5.14118,-32.45898 32.3125,-32.45898 34.5453,0 42.16018,-2.67629 14.25,-32.65625 -7.80561,-8.38445 -23.60704,-13.21814 -40.16016,-13 z m 51.41602,64.375 c -4.9342,0.10125 -11.20979,1.10351 -18.61133,1.10351 -15.77628,2.72085 -26.29817,-4.84719 -15.76172,18.00586 3.39587,8.12806 7.09786,16.07776 8.97852,21.52735 1.18767,3.44149 3.01651,10.39151 6.53711,12.60937 6.06001,2.35929 17.96986,-7.96991 22.97656,-20.19336 10.28232,-25.10367 12.25816,-30.67536 0.35937,-32.7832 -1.33888,-0.23718 -2.83378,-0.30328 -4.47851,-0.26953 z m 35.98828,1.40429 c -4.57327,0.0689 -6.90114,8.80249 -9.0625,18.91797 -3.65171,17.0906 -9.85927,27.02248 -28.11719,46.66211 -5.87218,6.31654 -6.0333,9.17516 -3.13867,19.27149 6.35391,22.16212 9.05054,21.47396 13.19922,11.15234 9.07914,-22.58816 32.29039,-83.25952 34.01367,-87.83594 1.7235,-4.57642 -2.91216,-8.22795 -6.89453,-8.16797 z m 30.24414,15.83399 c -2.93531,0.13386 -4.71463,2.59351 -5.38477,3.2832 -4.51714,4.64901 -34.78711,78.81565 -34.78711,85.54688 0,0.31366 -0.91158,6.10248 1.90821,6.83593 9.71833,2.52794 37.15517,1.50977 67.25,1.50977 0,0 60.50339,3.97799 66.85742,1.75 3.89499,-1.36577 2.67349,-5.69953 0.28906,-8.99414 -11.08962,-15.3227 -44.85156,-46.33789 -44.85156,-46.33789 -18.34738,-20.3537 -37.44897,-37.86569 -48.18555,-42.91211 -0.90168,-0.42381 -1.73358,-0.62793 -2.49414,-0.67578 -0.20598,-0.013 -0.40587,-0.0146 -0.60156,-0.006 z m 1.79297,115.21484 c -59.4139,0.15594 -75.73733,8.02636 -41.73828,21.69336 8.68596,3.49153 10.06804,9.90503 4.26953,9.90234 -30.88003,-0.0143 -31.87375,10.84698 -26.02735,17.16211 4.86361,5.25358 36.77539,76.27735 36.7754,76.27735 2.00463,3.65794 8.58125,10.09896 13.0332,10.02148 0,0 6.36558,0.61524 15.79883,0.61524 9.14725,0 16.22656,1.78125 16.22656,1.78125 5.04676,0.34167 12.44452,-3.27251 14.53906,-8.23243 l 11.58789,-27.4414 c 11.02942,-22.46257 14.13136,-33.39264 21.92774,-44.39844 7.57258,-10.68986 1.33713,-11.61799 -9.6836,-10.64453 -14.8515,1.3118 -5.09202,-12.50391 12.17774,-13.67969 12.7384,-0.86729 20.16603,-7.42099 22.77734,-14.43164 2.26118,-6.07075 5.44785,-15.70514 -2.97656,-16.05664 -3.45169,-0.14404 -51.29297,-1.84961 -51.29297,-1.84961 -13.91223,-0.51233 -26.39196,-0.74763 -37.39453,-0.71875 z m -0.97852,69.45703 c 12.76505,-0.17591 26.84644,6.89227 32.20703,20.83789 4.85915,12.64112 0.48379,21.92756 -5.89843,29.13868 -13.3632,15.09869 -44.51499,9.27839 -50.02539,-20.9375 -3.52645,-19.33698 9.24974,-28.8397 23.71679,-29.03907 z"
       transform="scale(0.26458333)"
       inkscape:export-filename="/home/lukas/Webpages/bilfri.by/static/img/favicon.png"
       inkscape:export-xdpi="14.549915"
       inkscape:export-ydpi="14.549915" />
  </g>
  <g
     id="layer2"
     style="display:inline"
     transform="translate(-31.111796,-31.111796)">
    <g
       id="g2017"
       style="fill:#ffffff;fill-opacity:1">
      <g
         id="g2025"
         style="fill:#ffffff;fill-opacity:1">
        <g
           aria-label="Bilfri By"
           transform="translate(-0.52916667)"
           id="text1957"
           style="font-style:italic;font-variant:normal;font-weight:800;font-stretch:normal;font-size:42.3333px;line-height:1.25;font-family:'Besley*';-inkscape-font-specification:'Besley*, Ultra-Bold Italic';font-variant-ligatures:normal;font-variant-caps:normal;font-variant-numeric:normal;font-variant-east-asian:normal;letter-spacing:0px;white-space:pre;display:inline;fill:#ffffff;fill-opacity:1;stroke:none;stroke-width:1;stroke-miterlimit:4;stroke-dasharray:none" />
        <g
           aria-label="København"
           transform="translate(1.0583333)"
           id="text1990"
           style="font-style:normal;font-weight:normal;font-size:10.5833px;line-height:1.25;font-family:sans-serif;white-space:pre;fill:#ffffff;fill-opacity:1;stroke:none" />
      </g>
    </g>
  </g>
</svg>
